<?xml version="1.0" encoding="utf-8" standalone="no"?>
<!DOCTYPE svg PUBLIC "-//W3C//DTD SVG 1.1//EN"
  "http://www.w3.org/Graphics/SVG/1.1/DTD/svg11.dtd">
<svg xmlns:xlink="http://www.w3.org/1999/xlink" width="418.704625pt" height="277.16435pt" viewBox="0 0 418.704625 277.16435" xmlns="http://www.w3.org/2000/svg" version="1.1">
 <metadata>
  <rdf:RDF xmlns:dc="http://purl.org/dc/elements/1.1/" xmlns:cc="http://creativecommons.org/ns#" xmlns:rdf="http://www.w3.org/1999/02/22-rdf-syntax-ns#">
   <cc:Work>
    <dc:type rdf:resource="http://purl.org/dc/dcmitype/StillImage"/>
    <dc:date>2024-09-14T08:54:20.445084</dc:date>
    <dc:format>image/svg+xml</dc:format>
    <dc:creator>
     <cc:Agent>
      <dc:title>Matplotlib v3.8.2, https://matplotlib.org/</dc:title>
     </cc:Agent>
    </dc:creator>
   </cc:Work>
  </rdf:RDF>
 </metadata>
 <defs>
  <style type="text/css">*{stroke-linejoin: round; stroke-linecap: butt}</style>
 </defs>
 <g id="figure_1">
  <g id="patch_1">
   <path d="M 0 277.16435 
L 418.704625 277.16435 
L 418.704625 0 
L 0 0 
z
" style="fill: #ffffff"/>
  </g>
  <g id="axes_1">
   <g id="patch_2">
    <path d="M 54.68 234.8556 
L 340.376 234.8556 
L 340.376 40.8156 
L 54.68 40.8156 
z
" style="fill: #ffffff"/>
   </g>
   <g id="QuadMesh_1">
    <path d="M 54.68 234.8556 
L 54.68 219.688687 
L 78.488 219.688687 
L 78.488 234.8556 
L 54.68 234.8556 
" clip-path="url(#p97c29ded13)" style="fill: #fde725"/>
    <path d="M 54.68 219.688687 
L 54.68 200.573798 
L 78.488 200.573798 
L 78.488 219.688687 
L 54.68 219.688687 
" clip-path="url(#p97c29ded13)" style="fill: #1fa188"/>
    <path d="M 54.68 200.573798 
L 54.68 181.458909 
L 78.488 181.458909 
L 78.488 200.573798 
L 54.68 200.573798 
" clip-path="url(#p97c29ded13)" style="fill: #375b8d"/>
    <path d="M 54.68 181.458909 
L 54.68 162.34402 
L 78.488 162.34402 
L 78.488 181.458909 
L 54.68 181.458909 
" clip-path="url(#p97c29ded13)" style="fill: #46327e"/>
    <path d="M 54.68 162.34402 
L 54.68 143.229131 
L 78.488 143.229131 
L 78.488 162.34402 
L 54.68 162.34402 
" clip-path="url(#p97c29ded13)" style="fill: #46327e"/>
    <path d="M 54.68 143.229131 
L 54.68 124.114242 
L 78.488 124.114242 
L 78.488 143.229131 
L 54.68 143.229131 
" clip-path="url(#p97c29ded13)" style="fill: #46327e"/>
    <path d="M 54.68 124.114242 
L 54.68 104.999352 
L 78.488 104.999352 
L 78.488 124.114242 
L 54.68 124.114242 
" clip-path="url(#p97c29ded13)" style="fill: #46327e"/>
    <path d="M 54.68 104.999352 
L 54.68 85.884463 
L 78.488 85.884463 
L 78.488 104.999352 
L 54.68 104.999352 
" clip-path="url(#p97c29ded13)" style="fill: #46327e"/>
    <path d="M 54.68 85.884463 
L 54.68 66.769574 
L 78.488 66.769574 
L 78.488 85.884463 
L 54.68 85.884463 
" clip-path="url(#p97c29ded13)" style="fill: #46327e"/>
    <path d="M 54.68 66.769574 
L 54.68 40.8156 
L 78.488 40.8156 
L 78.488 66.769574 
L 54.68 66.769574 
" clip-path="url(#p97c29ded13)" style="fill: #46327e"/>
    <path d="M 78.488 234.8556 
L 78.488 219.688687 
L 102.296 219.688687 
L 102.296 234.8556 
L 78.488 234.8556 
" clip-path="url(#p97c29ded13)" style="fill: #9dd93b"/>
    <path d="M 78.488 219.688687 
L 78.488 200.573798 
L 102.296 200.573798 
L 102.296 219.688687 
L 78.488 219.688687 
" clip-path="url(#p97c29ded13)" style="fill: #1fa188"/>
    <path d="M 78.488 200.573798 
L 78.488 181.458909 
L 102.296 181.458909 
L 102.296 200.573798 
L 78.488 200.573798 
" clip-path="url(#p97c29ded13)" style="fill: #375b8d"/>
    <path d="M 78.488 181.458909 
L 78.488 162.34402 
L 102.296 162.34402 
L 102.296 181.458909 
L 78.488 181.458909 
" clip-path="url(#p97c29ded13)" style="fill: #46327e"/>
    <path d="M 78.488 162.34402 
L 78.488 143.229131 
L 102.296 143.229131 
L 102.296 162.34402 
L 78.488 162.34402 
" clip-path="url(#p97c29ded13)" style="fill: #46327e"/>
    <path d="M 78.488 143.229131 
L 78.488 124.114242 
L 102.296 124.114242 
L 102.296 143.229131 
L 78.488 143.229131 
" clip-path="url(#p97c29ded13)" style="fill: #46327e"/>
    <path d="M 78.488 124.114242 
L 78.488 104.999352 
L 102.296 104.999352 
L 102.296 124.114242 
L 78.488 124.114242 
" clip-path="url(#p97c29ded13)" style="fill: #46327e"/>
    <path d="M 78.488 104.999352 
L 78.488 85.884463 
L 102.296 85.884463 
L 102.296 104.999352 
L 78.488 104.999352 
" clip-path="url(#p97c29ded13)" style="fill: #46327e"/>
    <path d="M 78.488 85.884463 
L 78.488 66.769574 
L 102.296 66.769574 
L 102.296 85.884463 
L 78.488 85.884463 
" clip-path="url(#p97c29ded13)" style="fill: #46327e"/>
    <path d="M 78.488 66.769574 
L 78.488 40.8156 
L 102.296 40.8156 
L 102.296 66.769574 
L 78.488 66.769574 
" clip-path="url(#p97c29ded13)" style="fill: #46327e"/>
    <path d="M 102.296 234.8556 
L 102.296 219.688687 
L 126.104 219.688687 
L 126.104 234.8556 
L 102.296 234.8556 
" clip-path="url(#p97c29ded13)" style="fill: #4ac16d"/>
    <path d="M 102.296 219.688687 
L 102.296 200.573798 
L 126.104 200.573798 
L 126.104 219.688687 
L 102.296 219.688687 
" clip-path="url(#p97c29ded13)" style="fill: #277f8e"/>
    <path d="M 102.296 200.573798 
L 102.296 181.458909 
L 126.104 181.458909 
L 126.104 200.573798 
L 102.296 200.573798 
" clip-path="url(#p97c29ded13)" style="fill: #46327e"/>
    <path d="M 102.296 181.458909 
L 102.296 162.34402 
L 126.104 162.34402 
L 126.104 181.458909 
L 102.296 181.458909 
" clip-path="url(#p97c29ded13)" style="fill: #46327e"/>
    <path d="M 102.296 162.34402 
L 102.296 143.229131 
L 126.104 143.229131 
L 126.104 162.34402 
L 102.296 162.34402 
" clip-path="url(#p97c29ded13)" style="fill: #46327e"/>
    <path d="M 102.296 143.229131 
L 102.296 124.114242 
L 126.104 124.114242 
L 126.104 143.229131 
L 102.296 143.229131 
" clip-path="url(#p97c29ded13)" style="fill: #46327e"/>
    <path d="M 102.296 124.114242 
L 102.296 104.999352 
L 126.104 104.999352 
L 126.104 124.114242 
L 102.296 124.114242 
" clip-path="url(#p97c29ded13)" style="fill: #46327e"/>
    <path d="M 102.296 104.999352 
L 102.296 85.884463 
L 126.104 85.884463 
L 126.104 104.999352 
L 102.296 104.999352 
" clip-path="url(#p97c29ded13)" style="fill: #46327e"/>
    <path d="M 102.296 85.884463 
L 102.296 66.769574 
L 126.104 66.769574 
L 126.104 85.884463 
L 102.296 85.884463 
" clip-path="url(#p97c29ded13)" style="fill: #46327e"/>
    <path d="M 102.296 66.769574 
L 102.296 40.8156 
L 126.104 40.8156 
L 126.104 66.769574 
L 102.296 66.769574 
" clip-path="url(#p97c29ded13)" style="fill: #46327e"/>
    <path d="M 126.104 234.8556 
L 126.104 219.688687 
L 149.912 219.688687 
L 149.912 234.8556 
L 126.104 234.8556 
" clip-path="url(#p97c29ded13)" style="fill: #277f8e"/>
    <path d="M 126.104 219.688687 
L 126.104 200.573798 
L 149.912 200.573798 
L 149.912 219.688687 
L 126.104 219.688687 
" clip-path="url(#p97c29ded13)" style="fill: #46327e"/>
    <path d="M 126.104 200.573798 
L 126.104 181.458909 
L 149.912 181.458909 
L 149.912 200.573798 
L 126.104 200.573798 
" clip-path="url(#p97c29ded13)" style="fill: #46327e"/>
    <path d="M 126.104 181.458909 
L 126.104 162.34402 
L 149.912 162.34402 
L 149.912 181.458909 
L 126.104 181.458909 
" clip-path="url(#p97c29ded13)" style="fill: #46327e"/>
    <path d="M 126.104 162.34402 
L 126.104 143.229131 
L 149.912 143.229131 
L 149.912 162.34402 
L 126.104 162.34402 
" clip-path="url(#p97c29ded13)" style="fill: #46327e"/>
    <path d="M 126.104 143.229131 
L 126.104 124.114242 
L 149.912 124.114242 
L 149.912 143.229131 
L 126.104 143.229131 
" clip-path="url(#p97c29ded13)" style="fill: #46327e"/>
    <path d="M 126.104 124.114242 
L 126.104 104.999352 
L 149.912 104.999352 
L 149.912 124.114242 
L 126.104 124.114242 
" clip-path="url(#p97c29ded13)" style="fill: #46327e"/>
    <path d="M 126.104 104.999352 
L 126.104 85.884463 
L 149.912 85.884463 
L 149.912 104.999352 
L 126.104 104.999352 
" clip-path="url(#p97c29ded13)" style="fill: #46327e"/>
    <path d="M 126.104 85.884463 
L 126.104 66.769574 
L 149.912 66.769574 
L 149.912 85.884463 
L 126.104 85.884463 
" clip-path="url(#p97c29ded13)" style="fill: #46327e"/>
    <path d="M 126.104 66.769574 
L 126.104 40.8156 
L 149.912 40.8156 
L 149.912 66.769574 
L 126.104 66.769574 
" clip-path="url(#p97c29ded13)" style="fill: #46327e"/>
    <path d="M 149.912 234.8556 
L 149.912 219.688687 
L 173.72 219.688687 
L 173.72 234.8556 
L 149.912 234.8556 
" clip-path="url(#p97c29ded13)" style="fill: #277f8e"/>
    <path d="M 149.912 219.688687 
L 149.912 200.573798 
L 173.72 200.573798 
L 173.72 219.688687 
L 149.912 219.688687 
" clip-path="url(#p97c29ded13)" style="fill: #46327e"/>
    <path d="M 149.912 200.573798 
L 149.912 181.458909 
L 173.72 181.458909 
L 173.72 200.573798 
L 149.912 200.573798 
" clip-path="url(#p97c29ded13)" style="fill: #46327e"/>
    <path d="M 149.912 181.458909 
L 149.912 162.34402 
L 173.72 162.34402 
L 173.72 181.458909 
L 149.912 181.458909 
" clip-path="url(#p97c29ded13)" style="fill: #46327e"/>
    <path d="M 149.912 162.34402 
L 149.912 143.229131 
L 173.72 143.229131 
L 173.72 162.34402 
L 149.912 162.34402 
" clip-path="url(#p97c29ded13)" style="fill: #46327e"/>
    <path d="M 149.912 143.229131 
L 149.912 124.114242 
L 173.72 124.114242 
L 173.72 143.229131 
L 149.912 143.229131 
" clip-path="url(#p97c29ded13)" style="fill: #46327e"/>
    <path d="M 149.912 124.114242 
L 149.912 104.999352 
L 173.72 104.999352 
L 173.72 124.114242 
L 149.912 124.114242 
" clip-path="url(#p97c29ded13)" style="fill: #46327e"/>
    <path d="M 149.912 104.999352 
L 149.912 85.884463 
L 173.72 85.884463 
L 173.72 104.999352 
L 149.912 104.999352 
" clip-path="url(#p97c29ded13)" style="fill: #46327e"/>
    <path d="M 149.912 85.884463 
L 149.912 66.769574 
L 173.72 66.769574 
L 173.72 85.884463 
L 149.912 85.884463 
" clip-path="url(#p97c29ded13)" style="fill: #46327e"/>
    <path d="M 149.912 66.769574 
L 149.912 40.8156 
L 173.72 40.8156 
L 173.72 66.769574 
L 149.912 66.769574 
" clip-path="url(#p97c29ded13)" style="fill: #46327e"/>
    <path d="M 173.72 234.8556 
L 173.72 219.688687 
L 197.528 219.688687 
L 197.528 234.8556 
L 173.72 234.8556 
" clip-path="url(#p97c29ded13)" style="fill: #375b8d"/>
    <path d="M 173.72 219.688687 
L 173.72 200.573798 
L 197.528 200.573798 
L 197.528 219.688687 
L 173.72 219.688687 
" clip-path="url(#p97c29ded13)" style="fill: #46327e"/>
    <path d="M 173.72 200.573798 
L 173.72 181.458909 
L 197.528 181.458909 
L 197.528 200.573798 
L 173.72 200.573798 
" clip-path="url(#p97c29ded13)" style="fill: #46327e"/>
    <path d="M 173.72 181.458909 
L 173.72 162.34402 
L 197.528 162.34402 
L 197.528 181.458909 
L 173.72 181.458909 
" clip-path="url(#p97c29ded13)" style="fill: #46327e"/>
    <path d="M 173.72 162.34402 
L 173.72 143.229131 
L 197.528 143.229131 
L 197.528 162.34402 
L 173.72 162.34402 
" clip-path="url(#p97c29ded13)" style="fill: #46327e"/>
    <path d="M 173.72 143.229131 
L 173.72 124.114242 
L 197.528 124.114242 
L 197.528 143.229131 
L 173.72 143.229131 
" clip-path="url(#p97c29ded13)" style="fill: #46327e"/>
    <path d="M 173.72 124.114242 
L 173.72 104.999352 
L 197.528 104.999352 
L 197.528 124.114242 
L 173.72 124.114242 
" clip-path="url(#p97c29ded13)" style="fill: #46327e"/>
    <path d="M 173.72 104.999352 
L 173.72 85.884463 
L 197.528 85.884463 
L 197.528 104.999352 
L 173.72 104.999352 
" clip-path="url(#p97c29ded13)" style="fill: #46327e"/>
    <path d="M 173.72 85.884463 
L 173.72 66.769574 
L 197.528 66.769574 
L 197.528 85.884463 
L 173.72 85.884463 
" clip-path="url(#p97c29ded13)" style="fill: #46327e"/>
    <path d="M 173.72 66.769574 
L 173.72 40.8156 
L 197.528 40.8156 
L 197.528 66.769574 
L 173.72 66.769574 
" clip-path="url(#p97c29ded13)" style="fill: #46327e"/>
    <path d="M 197.528 234.8556 
L 197.528 219.688687 
L 221.336 219.688687 
L 221.336 234.8556 
L 197.528 234.8556 
" clip-path="url(#p97c29ded13)" style="fill: #46327e"/>
    <path d="M 197.528 219.688687 
L 197.528 200.573798 
L 221.336 200.573798 
L 221.336 219.688687 
L 197.528 219.688687 
" clip-path="url(#p97c29ded13)" style="fill: #46327e"/>
    <path d="M 197.528 200.573798 
L 197.528 181.458909 
L 221.336 181.458909 
L 221.336 200.573798 
L 197.528 200.573798 
" clip-path="url(#p97c29ded13)" style="fill: #46327e"/>
    <path d="M 197.528 181.458909 
L 197.528 162.34402 
L 221.336 162.34402 
L 221.336 181.458909 
L 197.528 181.458909 
" clip-path="url(#p97c29ded13)" style="fill: #46327e"/>
    <path d="M 197.528 162.34402 
L 197.528 143.229131 
L 221.336 143.229131 
L 221.336 162.34402 
L 197.528 162.34402 
" clip-path="url(#p97c29ded13)" style="fill: #46327e"/>
    <path d="M 197.528 143.229131 
L 197.528 124.114242 
L 221.336 124.114242 
L 221.336 143.229131 
L 197.528 143.229131 
" clip-path="url(#p97c29ded13)" style="fill: #46327e"/>
    <path d="M 197.528 124.114242 
L 197.528 104.999352 
L 221.336 104.999352 
L 221.336 124.114242 
L 197.528 124.114242 
" clip-path="url(#p97c29ded13)" style="fill: #46327e"/>
    <path d="M 197.528 104.999352 
L 197.528 85.884463 
L 221.336 85.884463 
L 221.336 104.999352 
L 197.528 104.999352 
" clip-path="url(#p97c29ded13)" style="fill: #46327e"/>
    <path d="M 197.528 85.884463 
L 197.528 66.769574 
L 221.336 66.769574 
L 221.336 85.884463 
L 197.528 85.884463 
" clip-path="url(#p97c29ded13)" style="fill: #46327e"/>
    <path d="M 197.528 66.769574 
L 197.528 40.8156 
L 221.336 40.8156 
L 221.336 66.769574 
L 197.528 66.769574 
" clip-path="url(#p97c29ded13)" style="fill: #46327e"/>
    <path d="M 221.336 234.8556 
L 221.336 219.688687 
L 245.144 219.688687 
L 245.144 234.8556 
L 221.336 234.8556 
" clip-path="url(#p97c29ded13)" style="fill: #46327e"/>
    <path d="M 221.336 219.688687 
L 221.336 200.573798 
L 245.144 200.573798 
L 245.144 219.688687 
L 221.336 219.688687 
" clip-path="url(#p97c29ded13)" style="fill: #46327e"/>
    <path d="M 221.336 200.573798 
L 221.336 181.458909 
L 245.144 181.458909 
L 245.144 200.573798 
L 221.336 200.573798 
" clip-path="url(#p97c29ded13)" style="fill: #46327e"/>
    <path d="M 221.336 181.458909 
L 221.336 162.34402 
L 245.144 162.34402 
L 245.144 181.458909 
L 221.336 181.458909 
" clip-path="url(#p97c29ded13)" style="fill: #46327e"/>
    <path d="M 221.336 162.34402 
L 221.336 143.229131 
L 245.144 143.229131 
L 245.144 162.34402 
L 221.336 162.34402 
" clip-path="url(#p97c29ded13)" style="fill: #46327e"/>
    <path d="M 221.336 143.229131 
L 221.336 124.114242 
L 245.144 124.114242 
L 245.144 143.229131 
L 221.336 143.229131 
" clip-path="url(#p97c29ded13)" style="fill: #46327e"/>
    <path d="M 221.336 124.114242 
L 221.336 104.999352 
L 245.144 104.999352 
L 245.144 124.114242 
L 221.336 124.114242 
" clip-path="url(#p97c29ded13)" style="fill: #46327e"/>
    <path d="M 221.336 104.999352 
L 221.336 85.884463 
L 245.144 85.884463 
L 245.144 104.999352 
L 221.336 104.999352 
" clip-path="url(#p97c29ded13)" style="fill: #46327e"/>
    <path d="M 221.336 85.884463 
L 221.336 66.769574 
L 245.144 66.769574 
L 245.144 85.884463 
L 221.336 85.884463 
" clip-path="url(#p97c29ded13)" style="fill: #46327e"/>
    <path d="M 221.336 66.769574 
L 221.336 40.8156 
L 245.144 40.8156 
L 245.144 66.769574 
L 221.336 66.769574 
" clip-path="url(#p97c29ded13)" style="fill: #46327e"/>
    <path d="M 245.144 234.8556 
L 245.144 219.688687 
L 268.952 219.688687 
L 268.952 234.8556 
L 245.144 234.8556 
" clip-path="url(#p97c29ded13)" style="fill: #46327e"/>
    <path d="M 245.144 219.688687 
L 245.144 200.573798 
L 268.952 200.573798 
L 268.952 219.688687 
L 245.144 219.688687 
" clip-path="url(#p97c29ded13)" style="fill: #46327e"/>
    <path d="M 245.144 200.573798 
L 245.144 181.458909 
L 268.952 181.458909 
L 268.952 200.573798 
L 245.144 200.573798 
" clip-path="url(#p97c29ded13)" style="fill: #46327e"/>
    <path d="M 245.144 181.458909 
L 245.144 162.34402 
L 268.952 162.34402 
L 268.952 181.458909 
L 245.144 181.458909 
" clip-path="url(#p97c29ded13)" style="fill: #440154"/>
    <path d="M 245.144 162.34402 
L 245.144 143.229131 
L 268.952 143.229131 
L 268.952 162.34402 
L 245.144 162.34402 
" clip-path="url(#p97c29ded13)" style="fill: #440154"/>
    <path d="M 245.144 143.229131 
L 245.144 124.114242 
L 268.952 124.114242 
L 268.952 143.229131 
L 245.144 143.229131 
" clip-path="url(#p97c29ded13)" style="fill: #440154"/>
    <path d="M 245.144 124.114242 
L 245.144 104.999352 
L 268.952 104.999352 
L 268.952 124.114242 
L 245.144 124.114242 
" clip-path="url(#p97c29ded13)" style="fill: #440154"/>
    <path d="M 245.144 104.999352 
L 245.144 85.884463 
L 268.952 85.884463 
L 268.952 104.999352 
L 245.144 104.999352 
" clip-path="url(#p97c29ded13)" style="fill: #440154"/>
    <path d="M 245.144 85.884463 
L 245.144 66.769574 
L 268.952 66.769574 
L 268.952 85.884463 
L 245.144 85.884463 
" clip-path="url(#p97c29ded13)" style="fill: #440154"/>
    <path d="M 245.144 66.769574 
L 245.144 40.8156 
L 268.952 40.8156 
L 268.952 66.769574 
L 245.144 66.769574 
" clip-path="url(#p97c29ded13)" style="fill: #440154"/>
    <path d="M 268.952 234.8556 
L 268.952 219.688687 
L 292.76 219.688687 
L 292.76 234.8556 
L 268.952 234.8556 
" clip-path="url(#p97c29ded13)" style="fill: #46327e"/>
    <path d="M 268.952 219.688687 
L 268.952 200.573798 
L 292.76 200.573798 
L 292.76 219.688687 
L 268.952 219.688687 
" clip-path="url(#p97c29ded13)" style="fill: #46327e"/>
    <path d="M 268.952 200.573798 
L 268.952 181.458909 
L 292.76 181.458909 
L 292.76 200.573798 
L 268.952 200.573798 
" clip-path="url(#p97c29ded13)" style="fill: #46327e"/>
    <path d="M 268.952 181.458909 
L 268.952 162.34402 
L 292.76 162.34402 
L 292.76 181.458909 
L 268.952 181.458909 
" clip-path="url(#p97c29ded13)" style="fill: #440154"/>
    <path d="M 268.952 162.34402 
L 268.952 143.229131 
L 292.76 143.229131 
L 292.76 162.34402 
L 268.952 162.34402 
" clip-path="url(#p97c29ded13)" style="fill: #440154"/>
    <path d="M 268.952 143.229131 
L 268.952 124.114242 
L 292.76 124.114242 
L 292.76 143.229131 
L 268.952 143.229131 
" clip-path="url(#p97c29ded13)" style="fill: #440154"/>
    <path d="M 268.952 124.114242 
L 268.952 104.999352 
L 292.76 104.999352 
L 292.76 124.114242 
L 268.952 124.114242 
" clip-path="url(#p97c29ded13)" style="fill: #440154"/>
    <path d="M 268.952 104.999352 
L 268.952 85.884463 
L 292.76 85.884463 
L 292.76 104.999352 
L 268.952 104.999352 
" clip-path="url(#p97c29ded13)" style="fill: #440154"/>
    <path d="M 268.952 85.884463 
L 268.952 66.769574 
L 292.76 66.769574 
L 292.76 85.884463 
L 268.952 85.884463 
" clip-path="url(#p97c29ded13)" style="fill: #440154"/>
    <path d="M 268.952 66.769574 
L 268.952 40.8156 
L 292.76 40.8156 
L 292.76 66.769574 
L 268.952 66.769574 
" clip-path="url(#p97c29ded13)" style="fill: #440154"/>
    <path d="M 292.76 234.8556 
L 292.76 219.688687 
L 316.568 219.688687 
L 316.568 234.8556 
L 292.76 234.8556 
" clip-path="url(#p97c29ded13)" style="fill: #46327e"/>
    <path d="M 292.76 219.688687 
L 292.76 200.573798 
L 316.568 200.573798 
L 316.568 219.688687 
L 292.76 219.688687 
" clip-path="url(#p97c29ded13)" style="fill: #46327e"/>
    <path d="M 292.76 200.573798 
L 292.76 181.458909 
L 316.568 181.458909 
L 316.568 200.573798 
L 292.76 200.573798 
" clip-path="url(#p97c29ded13)" style="fill: #46327e"/>
    <path d="M 292.76 181.458909 
L 292.76 162.34402 
L 316.568 162.34402 
L 316.568 181.458909 
L 292.76 181.458909 
" clip-path="url(#p97c29ded13)" style="fill: #440154"/>
    <path d="M 292.76 162.34402 
L 292.76 143.229131 
L 316.568 143.229131 
L 316.568 162.34402 
L 292.76 162.34402 
" clip-path="url(#p97c29ded13)" style="fill: #440154"/>
    <path d="M 292.76 143.229131 
L 292.76 124.114242 
L 316.568 124.114242 
L 316.568 143.229131 
L 292.76 143.229131 
" clip-path="url(#p97c29ded13)" style="fill: #440154"/>
    <path d="M 292.76 124.114242 
L 292.76 104.999352 
L 316.568 104.999352 
L 316.568 124.114242 
L 292.76 124.114242 
" clip-path="url(#p97c29ded13)" style="fill: #440154"/>
    <path d="M 292.76 104.999352 
L 292.76 85.884463 
L 316.568 85.884463 
L 316.568 104.999352 
L 292.76 104.999352 
" clip-path="url(#p97c29ded13)" style="fill: #440154"/>
    <path d="M 292.76 85.884463 
L 292.76 66.769574 
L 316.568 66.769574 
L 316.568 85.884463 
L 292.76 85.884463 
" clip-path="url(#p97c29ded13)" style="fill: #440154"/>
    <path d="M 292.76 66.769574 
L 292.76 40.8156 
L 316.568 40.8156 
L 316.568 66.769574 
L 292.76 66.769574 
" clip-path="url(#p97c29ded13)" style="fill: #440154"/>
    <path d="M 316.568 234.8556 
L 316.568 219.688687 
L 340.376 219.688687 
L 340.376 234.8556 
L 316.568 234.8556 
" clip-path="url(#p97c29ded13)" style="fill: #46327e"/>
    <path d="M 316.568 219.688687 
L 316.568 200.573798 
L 340.376 200.573798 
L 340.376 219.688687 
L 316.568 219.688687 
" clip-path="url(#p97c29ded13)" style="fill: #46327e"/>
    <path d="M 316.568 200.573798 
L 316.568 181.458909 
L 340.376 181.458909 
L 340.376 200.573798 
L 316.568 200.573798 
" clip-path="url(#p97c29ded13)" style="fill: #440154"/>
    <path d="M 316.568 181.458909 
L 316.568 162.34402 
L 340.376 162.34402 
L 340.376 181.458909 
L 316.568 181.458909 
" clip-path="url(#p97c29ded13)" style="fill: #440154"/>
    <path d="M 316.568 162.34402 
L 316.568 143.229131 
L 340.376 143.229131 
L 340.376 162.34402 
L 316.568 162.34402 
" clip-path="url(#p97c29ded13)" style="fill: #440154"/>
    <path d="M 316.568 143.229131 
L 316.568 124.114242 
L 340.376 124.114242 
L 340.376 143.229131 
L 316.568 143.229131 
" clip-path="url(#p97c29ded13)" style="fill: #440154"/>
    <path d="M 316.568 124.114242 
L 316.568 104.999352 
L 340.376 104.999352 
L 340.376 124.114242 
L 316.568 124.114242 
" clip-path="url(#p97c29ded13)" style="fill: #440154"/>
    <path d="M 316.568 104.999352 
L 316.568 85.884463 
L 340.376 85.884463 
L 340.376 104.999352 
L 316.568 104.999352 
" clip-path="url(#p97c29ded13)" style="fill: #440154"/>
    <path d="M 316.568 85.884463 
L 316.568 66.769574 
L 340.376 66.769574 
L 340.376 85.884463 
L 316.568 85.884463 
" clip-path="url(#p97c29ded13)" style="fill: #440154"/>
    <path d="M 316.568 66.769574 
L 316.568 40.8156 
L 340.376 40.8156 
L 340.376 66.769574 
L 316.568 66.769574 
" clip-path="url(#p97c29ded13)" style="fill: #440154"/>
   </g>
   <g id="matplotlib.axis_1">
    <g id="xtick_1">
     <g id="line2d_1">
      <defs>
       <path id="m9e39b5933e" d="M 0 0 
L 0 3.5 
" style="stroke: #000000; stroke-width: 0.8"/>
      </defs>
      <g>
       <use xlink:href="#m9e39b5933e" x="66.584" y="234.8556" style="stroke: #000000; stroke-width: 0.8"/>
      </g>
     </g>
     <g id="text_1">
      <!-- 1.0 -->
      <g transform="translate(58.147438 250.973725) scale(0.12 -0.12)">
       <defs>
        <path id="OpenSans-Regular-31" d="M 2247 0 
L 1741 0 
L 1741 3238 
Q 1741 3422 1742 3555 
Q 1744 3688 1748 3798 
Q 1753 3909 1763 4025 
Q 1666 3925 1581 3854 
Q 1497 3784 1372 3681 
L 850 3263 
L 578 3616 
L 1816 4569 
L 2247 4569 
L 2247 0 
z
" transform="scale(0.015625)"/>
        <path id="OpenSans-Regular-2e" d="M 469 325 
Q 469 544 575 636 
Q 681 728 834 728 
Q 994 728 1103 636 
Q 1213 544 1213 325 
Q 1213 109 1103 10 
Q 994 -88 834 -88 
Q 681 -88 575 10 
Q 469 109 469 325 
z
" transform="scale(0.015625)"/>
        <path id="OpenSans-Regular-30" d="M 3334 2291 
Q 3334 1734 3250 1296 
Q 3166 859 2984 556 
Q 2803 253 2515 95 
Q 2228 -63 1825 -63 
Q 1316 -63 983 215 
Q 650 494 486 1020 
Q 322 1547 322 2291 
Q 322 3022 470 3548 
Q 619 4075 950 4358 
Q 1281 4641 1825 4641 
Q 2341 4641 2675 4361 
Q 3009 4081 3171 3554 
Q 3334 3028 3334 2291 
z
M 844 2291 
Q 844 1653 941 1228 
Q 1038 803 1255 592 
Q 1472 381 1825 381 
Q 2178 381 2395 590 
Q 2613 800 2711 1225 
Q 2809 1650 2809 2291 
Q 2809 2919 2712 3342 
Q 2616 3766 2400 3980 
Q 2184 4194 1825 4194 
Q 1466 4194 1250 3980 
Q 1034 3766 939 3342 
Q 844 2919 844 2291 
z
" transform="scale(0.015625)"/>
       </defs>
       <use xlink:href="#OpenSans-Regular-31"/>
       <use xlink:href="#OpenSans-Regular-2e" x="57.177734"/>
       <use xlink:href="#OpenSans-Regular-30" x="83.447266"/>
      </g>
     </g>
    </g>
    <g id="xtick_2">
     <g id="line2d_2">
      <g>
       <use xlink:href="#m9e39b5933e" x="110.232" y="234.8556" style="stroke: #000000; stroke-width: 0.8"/>
      </g>
     </g>
     <g id="text_2">
      <!-- 1.5 -->
      <g transform="translate(101.795438 250.973725) scale(0.12 -0.12)">
       <defs>
        <path id="OpenSans-Regular-35" d="M 1759 2794 
Q 2225 2794 2569 2636 
Q 2913 2478 3102 2178 
Q 3291 1878 3291 1450 
Q 3291 981 3087 642 
Q 2884 303 2503 120 
Q 2122 -63 1591 -63 
Q 1234 -63 928 0 
Q 622 63 413 188 
L 413 681 
Q 641 544 966 462 
Q 1291 381 1597 381 
Q 1944 381 2205 492 
Q 2466 603 2611 829 
Q 2756 1056 2756 1400 
Q 2756 1856 2476 2104 
Q 2197 2353 1594 2353 
Q 1400 2353 1169 2322 
Q 938 2291 788 2253 
L 525 2425 
L 700 4569 
L 2972 4569 
L 2972 4094 
L 1144 4094 
L 1028 2716 
Q 1147 2741 1334 2767 
Q 1522 2794 1759 2794 
z
" transform="scale(0.015625)"/>
       </defs>
       <use xlink:href="#OpenSans-Regular-31"/>
       <use xlink:href="#OpenSans-Regular-2e" x="57.177734"/>
       <use xlink:href="#OpenSans-Regular-35" x="83.447266"/>
      </g>
     </g>
    </g>
    <g id="xtick_3">
     <g id="line2d_3">
      <g>
       <use xlink:href="#m9e39b5933e" x="153.88" y="234.8556" style="stroke: #000000; stroke-width: 0.8"/>
      </g>
     </g>
     <g id="text_3">
      <!-- 2.0 -->
      <g transform="translate(145.443437 250.973725) scale(0.12 -0.12)">
       <defs>
        <path id="OpenSans-Regular-32" d="M 3309 0 
L 316 0 
L 316 434 
L 1538 1675 
Q 1878 2019 2111 2287 
Q 2344 2556 2466 2817 
Q 2588 3078 2588 3391 
Q 2588 3778 2358 3983 
Q 2128 4188 1753 4188 
Q 1425 4188 1172 4075 
Q 919 3963 653 3756 
L 375 4106 
Q 556 4259 770 4378 
Q 984 4497 1229 4565 
Q 1475 4634 1753 4634 
Q 2175 4634 2481 4487 
Q 2788 4341 2955 4069 
Q 3122 3797 3122 3422 
Q 3122 3059 2978 2748 
Q 2834 2438 2575 2133 
Q 2316 1828 1969 1488 
L 975 497 
L 975 475 
L 3309 475 
L 3309 0 
z
" transform="scale(0.015625)"/>
       </defs>
       <use xlink:href="#OpenSans-Regular-32"/>
       <use xlink:href="#OpenSans-Regular-2e" x="57.177734"/>
       <use xlink:href="#OpenSans-Regular-30" x="83.447266"/>
      </g>
     </g>
    </g>
    <g id="xtick_4">
     <g id="line2d_4">
      <g>
       <use xlink:href="#m9e39b5933e" x="197.528" y="234.8556" style="stroke: #000000; stroke-width: 0.8"/>
      </g>
     </g>
     <g id="text_4">
      <!-- 2.5 -->
      <g transform="translate(189.091437 250.973725) scale(0.12 -0.12)">
       <use xlink:href="#OpenSans-Regular-32"/>
       <use xlink:href="#OpenSans-Regular-2e" x="57.177734"/>
       <use xlink:href="#OpenSans-Regular-35" x="83.447266"/>
      </g>
     </g>
    </g>
    <g id="xtick_5">
     <g id="line2d_5">
      <g>
       <use xlink:href="#m9e39b5933e" x="241.176" y="234.8556" style="stroke: #000000; stroke-width: 0.8"/>
      </g>
     </g>
     <g id="text_5">
      <!-- 3.0 -->
      <g transform="translate(232.739437 250.973725) scale(0.12 -0.12)">
       <defs>
        <path id="OpenSans-Regular-33" d="M 3141 3503 
Q 3141 3197 3022 2972 
Q 2903 2747 2690 2605 
Q 2478 2463 2191 2406 
L 2191 2381 
Q 2734 2313 3007 2031 
Q 3281 1750 3281 1294 
Q 3281 897 3095 590 
Q 2909 284 2526 110 
Q 2144 -63 1547 -63 
Q 1184 -63 876 -5 
Q 569 53 288 188 
L 288 675 
Q 572 534 906 454 
Q 1241 375 1553 375 
Q 2178 375 2456 623 
Q 2734 872 2734 1303 
Q 2734 1600 2579 1783 
Q 2425 1966 2136 2052 
Q 1847 2138 1441 2138 
L 984 2138 
L 984 2581 
L 1444 2581 
Q 1816 2581 2075 2690 
Q 2334 2800 2470 2998 
Q 2606 3197 2606 3469 
Q 2606 3816 2375 4005 
Q 2144 4194 1747 4194 
Q 1503 4194 1303 4144 
Q 1103 4094 928 4006 
Q 753 3919 578 3803 
L 316 4159 
Q 566 4353 925 4493 
Q 1284 4634 1741 4634 
Q 2441 4634 2791 4315 
Q 3141 3997 3141 3503 
z
" transform="scale(0.015625)"/>
       </defs>
       <use xlink:href="#OpenSans-Regular-33"/>
       <use xlink:href="#OpenSans-Regular-2e" x="57.177734"/>
       <use xlink:href="#OpenSans-Regular-30" x="83.447266"/>
      </g>
     </g>
    </g>
    <g id="xtick_6">
     <g id="line2d_6">
      <g>
       <use xlink:href="#m9e39b5933e" x="284.824" y="234.8556" style="stroke: #000000; stroke-width: 0.8"/>
      </g>
     </g>
     <g id="text_6">
      <!-- 3.5 -->
      <g transform="translate(276.387437 250.973725) scale(0.12 -0.12)">
       <use xlink:href="#OpenSans-Regular-33"/>
       <use xlink:href="#OpenSans-Regular-2e" x="57.177734"/>
       <use xlink:href="#OpenSans-Regular-35" x="83.447266"/>
      </g>
     </g>
    </g>
    <g id="xtick_7">
     <g id="line2d_7">
      <g>
       <use xlink:href="#m9e39b5933e" x="328.472" y="234.8556" style="stroke: #000000; stroke-width: 0.8"/>
      </g>
     </g>
     <g id="text_7">
      <!-- 4.0 -->
      <g transform="translate(320.035438 250.973725) scale(0.12 -0.12)">
       <defs>
        <path id="OpenSans-Regular-34" d="M 3538 1059 
L 2853 1059 
L 2853 0 
L 2347 0 
L 2347 1059 
L 138 1059 
L 138 1497 
L 2313 4594 
L 2853 4594 
L 2853 1528 
L 3538 1528 
L 3538 1059 
z
M 2347 1528 
L 2347 3022 
Q 2347 3194 2350 3333 
Q 2353 3472 2359 3592 
Q 2366 3713 2370 3822 
Q 2375 3931 2378 4038 
L 2353 4038 
Q 2294 3913 2217 3773 
Q 2141 3634 2063 3525 
L 653 1528 
L 2347 1528 
z
" transform="scale(0.015625)"/>
       </defs>
       <use xlink:href="#OpenSans-Regular-34"/>
       <use xlink:href="#OpenSans-Regular-2e" x="57.177734"/>
       <use xlink:href="#OpenSans-Regular-30" x="83.447266"/>
      </g>
     </g>
    </g>
    <g id="text_8">
     <!-- Ray radius $r_{\text{CRE}}$ -->
     <g transform="translate(155.708 266.96435) scale(0.12 -0.12)">
      <defs>
       <path id="OpenSans-Regular-52" d="M 1859 4569 
Q 2422 4569 2789 4430 
Q 3156 4291 3337 4006 
Q 3519 3722 3519 3281 
Q 3519 2919 3387 2676 
Q 3256 2434 3043 2284 
Q 2831 2134 2591 2053 
L 3844 0 
L 3225 0 
L 2106 1906 
L 1156 1906 
L 1156 0 
L 625 0 
L 625 4569 
L 1859 4569 
z
M 1828 4109 
L 1156 4109 
L 1156 2356 
L 1881 2356 
Q 2441 2356 2705 2584 
Q 2969 2813 2969 3256 
Q 2969 3722 2689 3915 
Q 2409 4109 1828 4109 
z
" transform="scale(0.015625)"/>
       <path id="OpenSans-Regular-61" d="M 1828 3481 
Q 2441 3481 2737 3206 
Q 3034 2931 3034 2328 
L 3034 0 
L 2656 0 
L 2556 506 
L 2531 506 
Q 2388 319 2231 192 
Q 2075 66 1870 1 
Q 1666 -63 1369 -63 
Q 1056 -63 814 46 
Q 572 156 433 378 
Q 294 600 294 941 
Q 294 1453 700 1728 
Q 1106 2003 1938 2028 
L 2528 2053 
L 2528 2263 
Q 2528 2706 2337 2884 
Q 2147 3063 1800 3063 
Q 1531 3063 1287 2984 
Q 1044 2906 825 2800 
L 666 3194 
Q 897 3313 1197 3397 
Q 1497 3481 1828 3481 
z
M 2522 1688 
L 2000 1666 
Q 1359 1641 1096 1456 
Q 834 1272 834 934 
Q 834 641 1012 500 
Q 1191 359 1484 359 
Q 1941 359 2231 612 
Q 2522 866 2522 1372 
L 2522 1688 
z
" transform="scale(0.015625)"/>
       <path id="OpenSans-Regular-79" d="M 6 3425 
L 563 3425 
L 1319 1438 
Q 1384 1263 1440 1102 
Q 1497 941 1540 794 
Q 1584 647 1609 509 
L 1631 509 
Q 1675 666 1756 920 
Q 1838 1175 1931 1441 
L 2647 3425 
L 3206 3425 
L 1716 -503 
Q 1597 -819 1439 -1053 
Q 1281 -1288 1056 -1414 
Q 831 -1541 513 -1541 
Q 366 -1541 253 -1523 
Q 141 -1506 59 -1484 
L 59 -1069 
Q 128 -1084 226 -1096 
Q 325 -1109 431 -1109 
Q 625 -1109 767 -1036 
Q 909 -963 1012 -822 
Q 1116 -681 1191 -488 
L 1378 -6 
L 6 3425 
z
" transform="scale(0.015625)"/>
       <path id="OpenSans-Regular-20" transform="scale(0.015625)"/>
       <path id="OpenSans-Regular-72" d="M 2103 3488 
Q 2206 3488 2318 3477 
Q 2431 3466 2519 3447 
L 2453 2966 
Q 2369 2988 2266 3000 
Q 2163 3013 2072 3013 
Q 1866 3013 1683 2930 
Q 1500 2847 1362 2692 
Q 1225 2538 1147 2320 
Q 1069 2103 1069 1838 
L 1069 0 
L 547 0 
L 547 3425 
L 978 3425 
L 1034 2794 
L 1056 2794 
Q 1163 2984 1313 3142 
Q 1463 3300 1661 3394 
Q 1859 3488 2103 3488 
z
" transform="scale(0.015625)"/>
       <path id="OpenSans-Regular-64" d="M 1766 -63 
Q 1116 -63 736 381 
Q 356 825 356 1700 
Q 356 2584 743 3036 
Q 1131 3488 1775 3488 
Q 2047 3488 2250 3416 
Q 2453 3344 2600 3223 
Q 2747 3103 2847 2950 
L 2884 2950 
Q 2872 3047 2859 3215 
Q 2847 3384 2847 3491 
L 2847 4863 
L 3366 4863 
L 3366 0 
L 2947 0 
L 2869 488 
L 2847 488 
Q 2750 334 2601 209 
Q 2453 84 2248 10 
Q 2044 -63 1766 -63 
z
M 1847 369 
Q 2397 369 2625 681 
Q 2853 994 2853 1609 
L 2853 1703 
Q 2853 2356 2636 2706 
Q 2419 3056 1847 3056 
Q 1369 3056 1131 2689 
Q 894 2322 894 1688 
Q 894 1056 1130 712 
Q 1366 369 1847 369 
z
" transform="scale(0.015625)"/>
       <path id="OpenSans-Regular-69" d="M 1066 3425 
L 1066 0 
L 547 0 
L 547 3425 
L 1066 3425 
z
M 813 4706 
Q 941 4706 1033 4623 
Q 1125 4541 1125 4366 
Q 1125 4194 1033 4109 
Q 941 4025 813 4025 
Q 678 4025 589 4109 
Q 500 4194 500 4366 
Q 500 4541 589 4623 
Q 678 4706 813 4706 
z
" transform="scale(0.015625)"/>
       <path id="OpenSans-Regular-75" d="M 3375 3425 
L 3375 0 
L 2950 0 
L 2875 481 
L 2847 481 
Q 2741 303 2572 181 
Q 2403 59 2192 -2 
Q 1981 -63 1744 -63 
Q 1338 -63 1063 68 
Q 788 200 648 475 
Q 509 750 509 1181 
L 509 3425 
L 1034 3425 
L 1034 1219 
Q 1034 791 1228 580 
Q 1422 369 1819 369 
Q 2200 369 2426 512 
Q 2653 656 2753 936 
Q 2853 1216 2853 1622 
L 2853 3425 
L 3375 3425 
z
" transform="scale(0.015625)"/>
       <path id="OpenSans-Regular-73" d="M 2763 938 
Q 2763 609 2598 386 
Q 2434 163 2129 50 
Q 1825 -63 1403 -63 
Q 1044 -63 781 -6 
Q 519 50 322 153 
L 322 631 
Q 531 528 822 443 
Q 1113 359 1416 359 
Q 1859 359 2059 503 
Q 2259 647 2259 894 
Q 2259 1034 2179 1142 
Q 2100 1250 1912 1351 
Q 1725 1453 1394 1575 
Q 1066 1700 827 1823 
Q 588 1947 458 2125 
Q 328 2303 328 2588 
Q 328 3022 679 3255 
Q 1031 3488 1603 3488 
Q 1913 3488 2183 3427 
Q 2453 3366 2688 3263 
L 2513 2847 
Q 2300 2938 2059 3000 
Q 1819 3063 1569 3063 
Q 1209 3063 1017 2944 
Q 825 2825 825 2619 
Q 825 2459 914 2356 
Q 1003 2253 1200 2162 
Q 1397 2072 1719 1950 
Q 2041 1831 2275 1704 
Q 2509 1578 2636 1398 
Q 2763 1219 2763 938 
z
" transform="scale(0.015625)"/>
       <path id="DejaVuSans-Oblique-72" d="M 2853 2969 
Q 2766 3016 2653 3041 
Q 2541 3066 2413 3066 
Q 1953 3066 1609 2717 
Q 1266 2369 1153 1784 
L 800 0 
L 225 0 
L 909 3500 
L 1484 3500 
L 1375 2956 
Q 1603 3259 1920 3421 
Q 2238 3584 2597 3584 
Q 2691 3584 2781 3573 
Q 2872 3563 2963 3538 
L 2853 2969 
z
" transform="scale(0.015625)"/>
       <path id="DejaVuSans-43" d="M 4122 4306 
L 4122 3641 
Q 3803 3938 3442 4084 
Q 3081 4231 2675 4231 
Q 1875 4231 1450 3742 
Q 1025 3253 1025 2328 
Q 1025 1406 1450 917 
Q 1875 428 2675 428 
Q 3081 428 3442 575 
Q 3803 722 4122 1019 
L 4122 359 
Q 3791 134 3420 21 
Q 3050 -91 2638 -91 
Q 1578 -91 968 557 
Q 359 1206 359 2328 
Q 359 3453 968 4101 
Q 1578 4750 2638 4750 
Q 3056 4750 3426 4639 
Q 3797 4528 4122 4306 
z
" transform="scale(0.015625)"/>
       <path id="DejaVuSans-52" d="M 2841 2188 
Q 3044 2119 3236 1894 
Q 3428 1669 3622 1275 
L 4263 0 
L 3584 0 
L 2988 1197 
Q 2756 1666 2539 1819 
Q 2322 1972 1947 1972 
L 1259 1972 
L 1259 0 
L 628 0 
L 628 4666 
L 2053 4666 
Q 2853 4666 3247 4331 
Q 3641 3997 3641 3322 
Q 3641 2881 3436 2590 
Q 3231 2300 2841 2188 
z
M 1259 4147 
L 1259 2491 
L 2053 2491 
Q 2509 2491 2742 2702 
Q 2975 2913 2975 3322 
Q 2975 3731 2742 3939 
Q 2509 4147 2053 4147 
L 1259 4147 
z
" transform="scale(0.015625)"/>
       <path id="DejaVuSans-45" d="M 628 4666 
L 3578 4666 
L 3578 4134 
L 1259 4134 
L 1259 2753 
L 3481 2753 
L 3481 2222 
L 1259 2222 
L 1259 531 
L 3634 531 
L 3634 0 
L 628 0 
L 628 4666 
z
" transform="scale(0.015625)"/>
      </defs>
      <use xlink:href="#OpenSans-Regular-52" transform="translate(0 0.015625)"/>
      <use xlink:href="#OpenSans-Regular-61" transform="translate(61.71875 0.015625)"/>
      <use xlink:href="#OpenSans-Regular-79" transform="translate(117.285156 0.015625)"/>
      <use xlink:href="#OpenSans-Regular-20" transform="translate(167.382812 0.015625)"/>
      <use xlink:href="#OpenSans-Regular-72" transform="translate(193.359375 0.015625)"/>
      <use xlink:href="#OpenSans-Regular-61" transform="translate(234.228516 0.015625)"/>
      <use xlink:href="#OpenSans-Regular-64" transform="translate(289.794922 0.015625)"/>
      <use xlink:href="#OpenSans-Regular-69" transform="translate(350.976562 0.015625)"/>
      <use xlink:href="#OpenSans-Regular-75" transform="translate(376.220703 0.015625)"/>
      <use xlink:href="#OpenSans-Regular-73" transform="translate(437.548828 0.015625)"/>
      <use xlink:href="#OpenSans-Regular-20" transform="translate(485.205078 0.015625)"/>
      <use xlink:href="#DejaVuSans-Oblique-72" transform="translate(511.181641 0.015625)"/>
      <use xlink:href="#DejaVuSans-43" transform="translate(552.294922 -16.390625) scale(0.7)"/>
      <use xlink:href="#DejaVuSans-52" transform="translate(601.171875 -16.390625) scale(0.7)"/>
      <use xlink:href="#DejaVuSans-45" transform="translate(649.80957 -16.390625) scale(0.7)"/>
     </g>
    </g>
   </g>
   <g id="matplotlib.axis_2">
    <g id="ytick_1">
     <g id="line2d_8">
      <defs>
       <path id="m061a038287" d="M 0 0 
L -3.5 0 
" style="stroke: #000000; stroke-width: 0.8"/>
      </defs>
      <g>
       <use xlink:href="#m061a038287" x="54.68" y="56.002637" style="stroke: #000000; stroke-width: 0.8"/>
      </g>
     </g>
     <g id="text_9">
      <!-- $\mathdefault{10^{-3}}$ -->
      <g transform="translate(23.8 60.5617) scale(0.12 -0.12)">
       <defs>
        <path id="OpenSans-Regular-2212" d="M 322 2044 
L 322 2469 
L 3331 2469 
L 3331 2044 
L 322 2044 
z
" transform="scale(0.015625)"/>
       </defs>
       <use xlink:href="#OpenSans-Regular-31" transform="translate(0 0.854688)"/>
       <use xlink:href="#OpenSans-Regular-30" transform="translate(57.177734 0.854688)"/>
       <use xlink:href="#OpenSans-Regular-2212" transform="translate(115.291992 38.315625) scale(0.7)"/>
       <use xlink:href="#OpenSans-Regular-33" transform="translate(155.316406 38.315625) scale(0.7)"/>
      </g>
     </g>
    </g>
    <g id="ytick_2">
     <g id="line2d_9">
      <g>
       <use xlink:href="#m061a038287" x="54.68" y="142.019638" style="stroke: #000000; stroke-width: 0.8"/>
      </g>
     </g>
     <g id="text_10">
      <!-- $\mathdefault{10^{-2}}$ -->
      <g transform="translate(23.8 146.578701) scale(0.12 -0.12)">
       <use xlink:href="#OpenSans-Regular-31" transform="translate(0 0.854688)"/>
       <use xlink:href="#OpenSans-Regular-30" transform="translate(57.177734 0.854688)"/>
       <use xlink:href="#OpenSans-Regular-2212" transform="translate(115.291992 38.315625) scale(0.7)"/>
       <use xlink:href="#OpenSans-Regular-32" transform="translate(155.316406 38.315625) scale(0.7)"/>
      </g>
     </g>
    </g>
    <g id="ytick_3">
     <g id="line2d_10">
      <g>
       <use xlink:href="#m061a038287" x="54.68" y="228.03664" style="stroke: #000000; stroke-width: 0.8"/>
      </g>
     </g>
     <g id="text_11">
      <!-- $\mathdefault{10^{-1}}$ -->
      <g transform="translate(23.8 232.595702) scale(0.12 -0.12)">
       <use xlink:href="#OpenSans-Regular-31" transform="translate(0 0.565625)"/>
       <use xlink:href="#OpenSans-Regular-30" transform="translate(57.177734 0.565625)"/>
       <use xlink:href="#OpenSans-Regular-2212" transform="translate(115.291992 38.026563) scale(0.7)"/>
       <use xlink:href="#OpenSans-Regular-31" transform="translate(155.316406 38.026563) scale(0.7)"/>
      </g>
     </g>
    </g>
    <g id="ytick_4">
     <g id="line2d_11">
      <defs>
       <path id="m86734662ad" d="M 0 0 
L -2 0 
" style="stroke: #000000; stroke-width: 0.6"/>
      </defs>
      <g>
       <use xlink:href="#m86734662ad" x="54.68" y="42.678435" style="stroke: #000000; stroke-width: 0.6"/>
      </g>
     </g>
    </g>
    <g id="ytick_5">
     <g id="line2d_12">
      <g>
       <use xlink:href="#m86734662ad" x="54.68" y="47.666728" style="stroke: #000000; stroke-width: 0.6"/>
      </g>
     </g>
    </g>
    <g id="ytick_6">
     <g id="line2d_13">
      <g>
       <use xlink:href="#m86734662ad" x="54.68" y="52.066715" style="stroke: #000000; stroke-width: 0.6"/>
      </g>
     </g>
    </g>
    <g id="ytick_7">
     <g id="line2d_14">
      <g>
       <use xlink:href="#m86734662ad" x="54.68" y="81.896335" style="stroke: #000000; stroke-width: 0.6"/>
      </g>
     </g>
    </g>
    <g id="ytick_8">
     <g id="line2d_15">
      <g>
       <use xlink:href="#m86734662ad" x="54.68" y="97.043177" style="stroke: #000000; stroke-width: 0.6"/>
      </g>
     </g>
    </g>
    <g id="ytick_9">
     <g id="line2d_16">
      <g>
       <use xlink:href="#m86734662ad" x="54.68" y="107.790032" style="stroke: #000000; stroke-width: 0.6"/>
      </g>
     </g>
    </g>
    <g id="ytick_10">
     <g id="line2d_17">
      <g>
       <use xlink:href="#m86734662ad" x="54.68" y="116.125941" style="stroke: #000000; stroke-width: 0.6"/>
      </g>
     </g>
    </g>
    <g id="ytick_11">
     <g id="line2d_18">
      <g>
       <use xlink:href="#m86734662ad" x="54.68" y="122.936874" style="stroke: #000000; stroke-width: 0.6"/>
      </g>
     </g>
    </g>
    <g id="ytick_12">
     <g id="line2d_19">
      <g>
       <use xlink:href="#m86734662ad" x="54.68" y="128.695436" style="stroke: #000000; stroke-width: 0.6"/>
      </g>
     </g>
    </g>
    <g id="ytick_13">
     <g id="line2d_20">
      <g>
       <use xlink:href="#m86734662ad" x="54.68" y="133.68373" style="stroke: #000000; stroke-width: 0.6"/>
      </g>
     </g>
    </g>
    <g id="ytick_14">
     <g id="line2d_21">
      <g>
       <use xlink:href="#m86734662ad" x="54.68" y="138.083716" style="stroke: #000000; stroke-width: 0.6"/>
      </g>
     </g>
    </g>
    <g id="ytick_15">
     <g id="line2d_22">
      <g>
       <use xlink:href="#m86734662ad" x="54.68" y="167.913336" style="stroke: #000000; stroke-width: 0.6"/>
      </g>
     </g>
    </g>
    <g id="ytick_16">
     <g id="line2d_23">
      <g>
       <use xlink:href="#m86734662ad" x="54.68" y="183.060178" style="stroke: #000000; stroke-width: 0.6"/>
      </g>
     </g>
    </g>
    <g id="ytick_17">
     <g id="line2d_24">
      <g>
       <use xlink:href="#m86734662ad" x="54.68" y="193.807033" style="stroke: #000000; stroke-width: 0.6"/>
      </g>
     </g>
    </g>
    <g id="ytick_18">
     <g id="line2d_25">
      <g>
       <use xlink:href="#m86734662ad" x="54.68" y="202.142942" style="stroke: #000000; stroke-width: 0.6"/>
      </g>
     </g>
    </g>
    <g id="ytick_19">
     <g id="line2d_26">
      <g>
       <use xlink:href="#m86734662ad" x="54.68" y="208.953876" style="stroke: #000000; stroke-width: 0.6"/>
      </g>
     </g>
    </g>
    <g id="ytick_20">
     <g id="line2d_27">
      <g>
       <use xlink:href="#m86734662ad" x="54.68" y="214.712438" style="stroke: #000000; stroke-width: 0.6"/>
      </g>
     </g>
    </g>
    <g id="ytick_21">
     <g id="line2d_28">
      <g>
       <use xlink:href="#m86734662ad" x="54.68" y="219.700731" style="stroke: #000000; stroke-width: 0.6"/>
      </g>
     </g>
    </g>
    <g id="ytick_22">
     <g id="line2d_29">
      <g>
       <use xlink:href="#m86734662ad" x="54.68" y="224.100718" style="stroke: #000000; stroke-width: 0.6"/>
      </g>
     </g>
    </g>
    <g id="text_12">
     <!-- $T_1$ reduction factor at center $f_{T_1}$ -->
     <g transform="translate(16.44 225.7356) rotate(-90) scale(0.12 -0.12)">
      <defs>
       <path id="DejaVuSans-Oblique-54" d="M 378 4666 
L 4325 4666 
L 4225 4134 
L 2559 4134 
L 1759 0 
L 1125 0 
L 1925 4134 
L 275 4134 
L 378 4666 
z
" transform="scale(0.015625)"/>
       <path id="DejaVuSans-31" d="M 794 531 
L 1825 531 
L 1825 4091 
L 703 3866 
L 703 4441 
L 1819 4666 
L 2450 4666 
L 2450 531 
L 3481 531 
L 3481 0 
L 794 0 
L 794 531 
z
" transform="scale(0.015625)"/>
       <path id="OpenSans-Regular-65" d="M 1866 3488 
Q 2303 3488 2615 3294 
Q 2928 3100 3093 2751 
Q 3259 2403 3259 1938 
L 3259 1616 
L 894 1616 
Q 903 1013 1193 697 
Q 1484 381 2013 381 
Q 2338 381 2588 440 
Q 2838 500 3106 616 
L 3106 159 
Q 2847 44 2592 -9 
Q 2338 -63 1991 -63 
Q 1497 -63 1130 139 
Q 763 341 559 731 
Q 356 1122 356 1688 
Q 356 2241 542 2645 
Q 728 3050 1067 3269 
Q 1406 3488 1866 3488 
z
M 1859 3063 
Q 1444 3063 1197 2791 
Q 950 2519 903 2031 
L 2716 2031 
Q 2713 2338 2620 2570 
Q 2528 2803 2340 2933 
Q 2153 3063 1859 3063 
z
" transform="scale(0.015625)"/>
       <path id="OpenSans-Regular-63" d="M 1919 -63 
Q 1456 -63 1103 128 
Q 750 319 553 709 
Q 356 1100 356 1694 
Q 356 2316 564 2711 
Q 772 3106 1137 3297 
Q 1503 3488 1969 3488 
Q 2225 3488 2464 3436 
Q 2703 3384 2856 3306 
L 2700 2872 
Q 2544 2934 2339 2984 
Q 2134 3034 1956 3034 
Q 1600 3034 1364 2881 
Q 1128 2728 1011 2431 
Q 894 2134 894 1700 
Q 894 1284 1008 990 
Q 1122 697 1348 542 
Q 1575 388 1916 388 
Q 2188 388 2406 445 
Q 2625 503 2803 581 
L 2803 119 
Q 2631 31 2420 -16 
Q 2209 -63 1919 -63 
z
" transform="scale(0.015625)"/>
       <path id="OpenSans-Regular-74" d="M 1653 363 
Q 1781 363 1915 384 
Q 2050 406 2134 438 
L 2134 34 
Q 2044 -6 1883 -34 
Q 1722 -63 1569 -63 
Q 1297 -63 1075 32 
Q 853 128 720 356 
Q 588 584 588 988 
L 588 3019 
L 100 3019 
L 100 3272 
L 591 3475 
L 797 4219 
L 1109 4219 
L 1109 3425 
L 2113 3425 
L 2113 3019 
L 1109 3019 
L 1109 1003 
Q 1109 681 1257 522 
Q 1406 363 1653 363 
z
" transform="scale(0.015625)"/>
       <path id="OpenSans-Regular-6f" d="M 3500 1719 
Q 3500 1297 3390 965 
Q 3281 634 3075 406 
Q 2869 178 2576 57 
Q 2284 -63 1916 -63 
Q 1572 -63 1286 57 
Q 1000 178 792 406 
Q 584 634 470 965 
Q 356 1297 356 1719 
Q 356 2281 547 2676 
Q 738 3072 1092 3280 
Q 1447 3488 1938 3488 
Q 2406 3488 2757 3278 
Q 3109 3069 3304 2673 
Q 3500 2278 3500 1719 
z
M 894 1719 
Q 894 1306 1003 1003 
Q 1113 700 1341 534 
Q 1569 369 1928 369 
Q 2284 369 2514 534 
Q 2744 700 2853 1003 
Q 2963 1306 2963 1719 
Q 2963 2128 2853 2426 
Q 2744 2725 2516 2887 
Q 2288 3050 1925 3050 
Q 1391 3050 1142 2697 
Q 894 2344 894 1719 
z
" transform="scale(0.015625)"/>
       <path id="OpenSans-Regular-6e" d="M 2169 3488 
Q 2778 3488 3090 3189 
Q 3403 2891 3403 2231 
L 3403 0 
L 2891 0 
L 2891 2197 
Q 2891 2625 2695 2837 
Q 2500 3050 2097 3050 
Q 1528 3050 1297 2728 
Q 1066 2406 1066 1794 
L 1066 0 
L 547 0 
L 547 3425 
L 966 3425 
L 1044 2931 
L 1072 2931 
Q 1181 3113 1350 3236 
Q 1519 3359 1728 3423 
Q 1938 3488 2169 3488 
z
" transform="scale(0.015625)"/>
       <path id="OpenSans-Regular-66" d="M 2072 3019 
L 1219 3019 
L 1219 0 
L 700 0 
L 700 3019 
L 94 3019 
L 94 3269 
L 700 3441 
L 700 3669 
Q 700 4100 828 4370 
Q 956 4641 1200 4769 
Q 1444 4897 1794 4897 
Q 1991 4897 2155 4862 
Q 2319 4828 2444 4784 
L 2309 4375 
Q 2203 4409 2070 4439 
Q 1938 4469 1800 4469 
Q 1503 4469 1361 4276 
Q 1219 4084 1219 3675 
L 1219 3425 
L 2072 3425 
L 2072 3019 
z
" transform="scale(0.015625)"/>
       <path id="DejaVuSans-Oblique-66" d="M 3059 4863 
L 2969 4384 
L 2419 4384 
Q 2106 4384 1964 4261 
Q 1822 4138 1753 3809 
L 1691 3500 
L 2638 3500 
L 2553 3053 
L 1606 3053 
L 1013 0 
L 434 0 
L 1031 3053 
L 481 3053 
L 563 3500 
L 1113 3500 
L 1159 3744 
Q 1278 4363 1576 4613 
Q 1875 4863 2516 4863 
L 3059 4863 
z
" transform="scale(0.015625)"/>
      </defs>
      <use xlink:href="#DejaVuSans-Oblique-54" transform="translate(0 0.484375)"/>
      <use xlink:href="#DejaVuSans-31" transform="translate(61.083984 -15.921875) scale(0.7)"/>
      <use xlink:href="#OpenSans-Regular-20" transform="translate(108.354492 0.484375)"/>
      <use xlink:href="#OpenSans-Regular-72" transform="translate(134.331055 0.484375)"/>
      <use xlink:href="#OpenSans-Regular-65" transform="translate(175.200195 0.484375)"/>
      <use xlink:href="#OpenSans-Regular-64" transform="translate(231.352539 0.484375)"/>
      <use xlink:href="#OpenSans-Regular-75" transform="translate(292.53418 0.484375)"/>
      <use xlink:href="#OpenSans-Regular-63" transform="translate(353.862305 0.484375)"/>
      <use xlink:href="#OpenSans-Regular-74" transform="translate(401.762695 0.484375)"/>
      <use xlink:href="#OpenSans-Regular-69" transform="translate(437.407227 0.484375)"/>
      <use xlink:href="#OpenSans-Regular-6f" transform="translate(462.651367 0.484375)"/>
      <use xlink:href="#OpenSans-Regular-6e" transform="translate(522.807617 0.484375)"/>
      <use xlink:href="#OpenSans-Regular-20" transform="translate(584.135742 0.484375)"/>
      <use xlink:href="#OpenSans-Regular-66" transform="translate(610.112305 0.484375)"/>
      <use xlink:href="#OpenSans-Regular-61" transform="translate(643.754883 0.484375)"/>
      <use xlink:href="#OpenSans-Regular-63" transform="translate(699.321289 0.484375)"/>
      <use xlink:href="#OpenSans-Regular-74" transform="translate(747.22168 0.484375)"/>
      <use xlink:href="#OpenSans-Regular-6f" transform="translate(782.866211 0.484375)"/>
      <use xlink:href="#OpenSans-Regular-72" transform="translate(843.022461 0.484375)"/>
      <use xlink:href="#OpenSans-Regular-20" transform="translate(883.891602 0.484375)"/>
      <use xlink:href="#OpenSans-Regular-61" transform="translate(909.868164 0.484375)"/>
      <use xlink:href="#OpenSans-Regular-74" transform="translate(965.43457 0.484375)"/>
      <use xlink:href="#OpenSans-Regular-20" transform="translate(1001.079102 0.484375)"/>
      <use xlink:href="#OpenSans-Regular-63" transform="translate(1027.055664 0.484375)"/>
      <use xlink:href="#OpenSans-Regular-65" transform="translate(1074.956055 0.484375)"/>
      <use xlink:href="#OpenSans-Regular-6e" transform="translate(1131.108398 0.484375)"/>
      <use xlink:href="#OpenSans-Regular-74" transform="translate(1192.436523 0.484375)"/>
      <use xlink:href="#OpenSans-Regular-65" transform="translate(1228.081055 0.484375)"/>
      <use xlink:href="#OpenSans-Regular-72" transform="translate(1284.233398 0.484375)"/>
      <use xlink:href="#OpenSans-Regular-20" transform="translate(1325.102539 0.484375)"/>
      <use xlink:href="#DejaVuSans-Oblique-66" transform="translate(1351.079102 0.484375)"/>
      <use xlink:href="#DejaVuSans-Oblique-54" transform="translate(1386.28418 -15.921875) scale(0.7)"/>
      <use xlink:href="#DejaVuSans-31" transform="translate(1429.042969 -27.40625) scale(0.49)"/>
     </g>
    </g>
   </g>
   <g id="line2d_30">
    <defs>
     <path id="mf016d64b7b" d="M -3 3 
L 3 -3 
M -3 -3 
L 3 3 
" style="stroke: #ffffff"/>
    </defs>
    <g clip-path="url(#p97c29ded13)">
     <use xlink:href="#mf016d64b7b" x="241.176" y="142.019638" style="fill: #ffffff; stroke: #ffffff"/>
    </g>
   </g>
   <g id="patch_3">
    <path d="M 54.68 234.8556 
L 54.68 40.8156 
" style="fill: none; stroke: #000000; stroke-width: 0.8; stroke-linejoin: miter; stroke-linecap: square"/>
   </g>
   <g id="patch_4">
    <path d="M 340.376 234.8556 
L 340.376 40.8156 
" style="fill: none; stroke: #000000; stroke-width: 0.8; stroke-linejoin: miter; stroke-linecap: square"/>
   </g>
   <g id="patch_5">
    <path d="M 54.68 234.8556 
L 340.376 234.8556 
" style="fill: none; stroke: #000000; stroke-width: 0.8; stroke-linejoin: miter; stroke-linecap: square"/>
   </g>
   <g id="patch_6">
    <path d="M 54.68 40.8156 
L 340.376 40.8156 
" style="fill: none; stroke: #000000; stroke-width: 0.8; stroke-linejoin: miter; stroke-linecap: square"/>
   </g>
   <g id="text_13">
    <!-- McEwen 2022 -->
    <g style="fill: #ffffff" transform="translate(246.176 150.143388) scale(0.12 -0.12)">
     <defs>
      <path id="OpenSans-Regular-4d" d="M 2634 0 
L 1100 4044 
L 1075 4044 
Q 1088 3916 1097 3731 
Q 1106 3547 1112 3330 
Q 1119 3113 1119 2888 
L 1119 0 
L 625 0 
L 625 4569 
L 1413 4569 
L 2859 769 
L 2881 769 
L 4350 4569 
L 5131 4569 
L 5131 0 
L 4606 0 
L 4606 2925 
Q 4606 3128 4612 3333 
Q 4619 3538 4628 3720 
Q 4638 3903 4647 4038 
L 4622 4038 
L 3069 0 
L 2634 0 
z
" transform="scale(0.015625)"/>
      <path id="OpenSans-Regular-45" d="M 3169 0 
L 625 0 
L 625 4569 
L 3169 4569 
L 3169 4100 
L 1156 4100 
L 1156 2622 
L 3053 2622 
L 3053 2159 
L 1156 2159 
L 1156 469 
L 3169 469 
L 3169 0 
z
" transform="scale(0.015625)"/>
      <path id="OpenSans-Regular-77" d="M 3334 6 
L 2725 2000 
Q 2684 2128 2648 2251 
Q 2613 2375 2583 2489 
Q 2553 2603 2529 2701 
Q 2506 2800 2491 2872 
L 2469 2872 
Q 2456 2800 2434 2701 
Q 2413 2603 2383 2487 
Q 2353 2372 2318 2245 
Q 2284 2119 2241 1991 
L 1603 6 
L 1019 6 
L 75 3431 
L 613 3431 
L 1106 1541 
Q 1156 1353 1201 1170 
Q 1247 988 1280 827 
Q 1313 666 1328 547 
L 1353 547 
Q 1372 625 1395 734 
Q 1419 844 1448 967 
Q 1478 1091 1512 1214 
Q 1547 1338 1581 1447 
L 2213 3431 
L 2772 3431 
L 3381 1450 
Q 3428 1300 3473 1137 
Q 3519 975 3556 823 
Q 3594 672 3609 553 
L 3634 553 
Q 3647 659 3681 815 
Q 3716 972 3761 1159 
Q 3806 1347 3856 1541 
L 4356 3431 
L 4884 3431 
L 3938 6 
L 3334 6 
z
" transform="scale(0.015625)"/>
     </defs>
     <use xlink:href="#OpenSans-Regular-4d"/>
     <use xlink:href="#OpenSans-Regular-63" x="89.941406"/>
     <use xlink:href="#OpenSans-Regular-45" x="137.841797"/>
     <use xlink:href="#OpenSans-Regular-77" x="193.408203"/>
     <use xlink:href="#OpenSans-Regular-65" x="270.898438"/>
     <use xlink:href="#OpenSans-Regular-6e" x="327.050781"/>
     <use xlink:href="#OpenSans-Regular-20" x="388.378906"/>
     <use xlink:href="#OpenSans-Regular-32" x="414.355469"/>
     <use xlink:href="#OpenSans-Regular-30" x="471.533203"/>
     <use xlink:href="#OpenSans-Regular-32" x="528.710938"/>
     <use xlink:href="#OpenSans-Regular-32" x="585.888672"/>
    </g>
   </g>
   <g id="text_14">
    <!-- Number of distillations to turn off every affected qubit, -->
    <g transform="translate(14.203625 18.21825) scale(0.144 -0.144)">
     <defs>
      <path id="OpenSans-Regular-4e" d="M 4197 0 
L 3584 0 
L 1094 3838 
L 1069 3838 
Q 1078 3684 1090 3489 
Q 1103 3294 1111 3073 
Q 1119 2853 1119 2625 
L 1119 0 
L 625 0 
L 625 4569 
L 1234 4569 
L 3716 744 
L 3738 744 
Q 3731 853 3722 1054 
Q 3713 1256 3705 1489 
Q 3697 1722 3697 1922 
L 3697 4569 
L 4197 4569 
L 4197 0 
z
" transform="scale(0.015625)"/>
      <path id="OpenSans-Regular-6d" d="M 4266 3488 
Q 4831 3488 5118 3192 
Q 5406 2897 5406 2244 
L 5406 0 
L 4894 0 
L 4894 2219 
Q 4894 2634 4714 2842 
Q 4534 3050 4181 3050 
Q 3684 3050 3459 2762 
Q 3234 2475 3234 1916 
L 3234 0 
L 2719 0 
L 2719 2219 
Q 2719 2497 2639 2681 
Q 2559 2866 2401 2958 
Q 2244 3050 2003 3050 
Q 1663 3050 1456 2909 
Q 1250 2769 1158 2492 
Q 1066 2216 1066 1813 
L 1066 0 
L 547 0 
L 547 3425 
L 966 3425 
L 1044 2941 
L 1072 2941 
Q 1175 3119 1331 3241 
Q 1488 3363 1681 3425 
Q 1875 3488 2094 3488 
Q 2484 3488 2748 3342 
Q 3013 3197 3131 2900 
L 3159 2900 
Q 3328 3197 3622 3342 
Q 3916 3488 4266 3488 
z
" transform="scale(0.015625)"/>
      <path id="OpenSans-Regular-62" d="M 1066 4863 
L 1066 3647 
Q 1066 3438 1055 3241 
Q 1044 3044 1038 2934 
L 1066 2934 
Q 1206 3166 1472 3325 
Q 1738 3484 2150 3484 
Q 2794 3484 3176 3039 
Q 3559 2594 3559 1716 
Q 3559 1138 3384 741 
Q 3209 344 2890 140 
Q 2572 -63 2138 -63 
Q 1731 -63 1470 89 
Q 1209 241 1069 459 
L 1028 459 
L 922 0 
L 547 0 
L 547 4863 
L 1066 4863 
z
M 2066 3050 
Q 1694 3050 1475 2904 
Q 1256 2759 1161 2467 
Q 1066 2175 1066 1728 
L 1066 1700 
Q 1066 1053 1281 711 
Q 1497 369 2066 369 
Q 2544 369 2783 719 
Q 3022 1069 3022 1719 
Q 3022 2381 2786 2715 
Q 2550 3050 2066 3050 
z
" transform="scale(0.015625)"/>
      <path id="OpenSans-Regular-6c" d="M 1069 0 
L 547 0 
L 547 4863 
L 1069 4863 
L 1069 0 
z
" transform="scale(0.015625)"/>
      <path id="OpenSans-Regular-76" d="M 1300 0 
L 0 3425 
L 556 3425 
L 1309 1353 
Q 1388 1141 1469 884 
Q 1550 628 1581 472 
L 1603 472 
Q 1641 628 1728 886 
Q 1816 1144 1888 1353 
L 2641 3425 
L 3197 3425 
L 1894 0 
L 1300 0 
z
" transform="scale(0.015625)"/>
      <path id="OpenSans-Regular-71" d="M 2844 -1531 
L 2844 -63 
Q 2844 59 2850 218 
Q 2856 378 2872 494 
L 2838 494 
Q 2694 256 2428 96 
Q 2163 -63 1744 -63 
Q 1116 -63 734 381 
Q 353 825 353 1706 
Q 353 2284 528 2681 
Q 703 3078 1023 3283 
Q 1344 3488 1772 3488 
Q 2181 3488 2440 3327 
Q 2700 3166 2847 2934 
L 2872 2934 
L 2950 3425 
L 3363 3425 
L 3363 -1531 
L 2844 -1531 
z
M 1841 369 
Q 2203 369 2422 505 
Q 2641 641 2742 916 
Q 2844 1191 2850 1600 
L 2850 1709 
Q 2850 2372 2625 2714 
Q 2400 3056 1841 3056 
Q 1359 3056 1125 2689 
Q 891 2322 891 1694 
Q 891 1066 1125 717 
Q 1359 369 1841 369 
z
" transform="scale(0.015625)"/>
      <path id="OpenSans-Regular-2c" d="M 1141 744 
L 1181 672 
Q 1125 444 1039 184 
Q 953 -75 851 -336 
Q 750 -597 647 -825 
L 259 -825 
Q 325 -575 387 -298 
Q 450 -22 501 248 
Q 553 519 584 744 
L 1141 744 
z
" transform="scale(0.015625)"/>
     </defs>
     <use xlink:href="#OpenSans-Regular-4e"/>
     <use xlink:href="#OpenSans-Regular-75" x="75.292969"/>
     <use xlink:href="#OpenSans-Regular-6d" x="136.621094"/>
     <use xlink:href="#OpenSans-Regular-62" x="229.199219"/>
     <use xlink:href="#OpenSans-Regular-65" x="290.380859"/>
     <use xlink:href="#OpenSans-Regular-72" x="346.533203"/>
     <use xlink:href="#OpenSans-Regular-20" x="387.402344"/>
     <use xlink:href="#OpenSans-Regular-6f" x="413.378906"/>
     <use xlink:href="#OpenSans-Regular-66" x="473.535156"/>
     <use xlink:href="#OpenSans-Regular-20" x="507.177734"/>
     <use xlink:href="#OpenSans-Regular-64" x="533.154297"/>
     <use xlink:href="#OpenSans-Regular-69" x="594.335938"/>
     <use xlink:href="#OpenSans-Regular-73" x="619.580078"/>
     <use xlink:href="#OpenSans-Regular-74" x="667.236328"/>
     <use xlink:href="#OpenSans-Regular-69" x="702.880859"/>
     <use xlink:href="#OpenSans-Regular-6c" x="728.125"/>
     <use xlink:href="#OpenSans-Regular-6c" x="753.369141"/>
     <use xlink:href="#OpenSans-Regular-61" x="778.613281"/>
     <use xlink:href="#OpenSans-Regular-74" x="834.179688"/>
     <use xlink:href="#OpenSans-Regular-69" x="869.824219"/>
     <use xlink:href="#OpenSans-Regular-6f" x="895.068359"/>
     <use xlink:href="#OpenSans-Regular-6e" x="955.224609"/>
     <use xlink:href="#OpenSans-Regular-73" x="1016.552734"/>
     <use xlink:href="#OpenSans-Regular-20" x="1064.208984"/>
     <use xlink:href="#OpenSans-Regular-74" x="1090.185547"/>
     <use xlink:href="#OpenSans-Regular-6f" x="1125.830078"/>
     <use xlink:href="#OpenSans-Regular-20" x="1185.986328"/>
     <use xlink:href="#OpenSans-Regular-74" x="1211.962891"/>
     <use xlink:href="#OpenSans-Regular-75" x="1247.607422"/>
     <use xlink:href="#OpenSans-Regular-72" x="1308.935547"/>
     <use xlink:href="#OpenSans-Regular-6e" x="1349.804688"/>
     <use xlink:href="#OpenSans-Regular-20" x="1411.132812"/>
     <use xlink:href="#OpenSans-Regular-6f" x="1437.109375"/>
     <use xlink:href="#OpenSans-Regular-66" x="1497.265625"/>
     <use xlink:href="#OpenSans-Regular-66" x="1530.908203"/>
     <use xlink:href="#OpenSans-Regular-20" x="1564.550781"/>
     <use xlink:href="#OpenSans-Regular-65" x="1590.527344"/>
     <use xlink:href="#OpenSans-Regular-76" x="1646.679688"/>
     <use xlink:href="#OpenSans-Regular-65" x="1696.630859"/>
     <use xlink:href="#OpenSans-Regular-72" x="1752.783203"/>
     <use xlink:href="#OpenSans-Regular-79" x="1793.652344"/>
     <use xlink:href="#OpenSans-Regular-20" x="1843.75"/>
     <use xlink:href="#OpenSans-Regular-61" x="1869.726562"/>
     <use xlink:href="#OpenSans-Regular-66" x="1925.292969"/>
     <use xlink:href="#OpenSans-Regular-66" x="1958.935547"/>
     <use xlink:href="#OpenSans-Regular-65" x="1992.578125"/>
     <use xlink:href="#OpenSans-Regular-63" x="2048.730469"/>
     <use xlink:href="#OpenSans-Regular-74" x="2096.630859"/>
     <use xlink:href="#OpenSans-Regular-65" x="2132.275391"/>
     <use xlink:href="#OpenSans-Regular-64" x="2188.427734"/>
     <use xlink:href="#OpenSans-Regular-20" x="2249.609375"/>
     <use xlink:href="#OpenSans-Regular-71" x="2275.585938"/>
     <use xlink:href="#OpenSans-Regular-75" x="2336.767578"/>
     <use xlink:href="#OpenSans-Regular-62" x="2398.095703"/>
     <use xlink:href="#OpenSans-Regular-69" x="2459.277344"/>
     <use xlink:href="#OpenSans-Regular-74" x="2484.521484"/>
     <use xlink:href="#OpenSans-Regular-2c" x="2520.166016"/>
    </g>
    <!-- $\bf{Direct}$ model -->
    <g transform="translate(149.792 34.8156) scale(0.144 -0.144)">
     <defs>
      <path id="DejaVuSans-Bold-44" d="M 1791 3756 
L 1791 909 
L 2222 909 
Q 2959 909 3348 1275 
Q 3738 1641 3738 2338 
Q 3738 3031 3350 3393 
Q 2963 3756 2222 3756 
L 1791 3756 
z
M 588 4666 
L 1856 4666 
Q 2919 4666 3439 4514 
Q 3959 4363 4331 4000 
Q 4659 3684 4818 3271 
Q 4978 2859 4978 2338 
Q 4978 1809 4818 1395 
Q 4659 981 4331 666 
Q 3956 303 3431 151 
Q 2906 0 1856 0 
L 588 0 
L 588 4666 
z
" transform="scale(0.015625)"/>
      <path id="DejaVuSans-Bold-69" d="M 538 3500 
L 1656 3500 
L 1656 0 
L 538 0 
L 538 3500 
z
M 538 4863 
L 1656 4863 
L 1656 3950 
L 538 3950 
L 538 4863 
z
" transform="scale(0.015625)"/>
      <path id="DejaVuSans-Bold-72" d="M 3138 2547 
Q 2991 2616 2845 2648 
Q 2700 2681 2553 2681 
Q 2122 2681 1889 2404 
Q 1656 2128 1656 1613 
L 1656 0 
L 538 0 
L 538 3500 
L 1656 3500 
L 1656 2925 
Q 1872 3269 2151 3426 
Q 2431 3584 2822 3584 
Q 2878 3584 2943 3579 
Q 3009 3575 3134 3559 
L 3138 2547 
z
" transform="scale(0.015625)"/>
      <path id="DejaVuSans-Bold-65" d="M 4031 1759 
L 4031 1441 
L 1416 1441 
Q 1456 1047 1700 850 
Q 1944 653 2381 653 
Q 2734 653 3104 758 
Q 3475 863 3866 1075 
L 3866 213 
Q 3469 63 3072 -14 
Q 2675 -91 2278 -91 
Q 1328 -91 801 392 
Q 275 875 275 1747 
Q 275 2603 792 3093 
Q 1309 3584 2216 3584 
Q 3041 3584 3536 3087 
Q 4031 2591 4031 1759 
z
M 2881 2131 
Q 2881 2450 2695 2645 
Q 2509 2841 2209 2841 
Q 1884 2841 1681 2658 
Q 1478 2475 1428 2131 
L 2881 2131 
z
" transform="scale(0.015625)"/>
      <path id="DejaVuSans-Bold-63" d="M 3366 3391 
L 3366 2478 
Q 3138 2634 2908 2709 
Q 2678 2784 2431 2784 
Q 1963 2784 1702 2511 
Q 1441 2238 1441 1747 
Q 1441 1256 1702 982 
Q 1963 709 2431 709 
Q 2694 709 2930 787 
Q 3166 866 3366 1019 
L 3366 103 
Q 3103 6 2833 -42 
Q 2563 -91 2291 -91 
Q 1344 -91 809 395 
Q 275 881 275 1747 
Q 275 2613 809 3098 
Q 1344 3584 2291 3584 
Q 2566 3584 2833 3536 
Q 3100 3488 3366 3391 
z
" transform="scale(0.015625)"/>
      <path id="DejaVuSans-Bold-74" d="M 1759 4494 
L 1759 3500 
L 2913 3500 
L 2913 2700 
L 1759 2700 
L 1759 1216 
Q 1759 972 1856 886 
Q 1953 800 2241 800 
L 2816 800 
L 2816 0 
L 1856 0 
Q 1194 0 917 276 
Q 641 553 641 1216 
L 641 2700 
L 84 2700 
L 84 3500 
L 641 3500 
L 641 4494 
L 1759 4494 
z
" transform="scale(0.015625)"/>
     </defs>
     <use xlink:href="#DejaVuSans-Bold-44" transform="translate(0 0.015625)"/>
     <use xlink:href="#DejaVuSans-Bold-69" transform="translate(83.007812 0.015625)"/>
     <use xlink:href="#DejaVuSans-Bold-72" transform="translate(117.285156 0.015625)"/>
     <use xlink:href="#DejaVuSans-Bold-65" transform="translate(166.601562 0.015625)"/>
     <use xlink:href="#DejaVuSans-Bold-63" transform="translate(234.423828 0.015625)"/>
     <use xlink:href="#DejaVuSans-Bold-74" transform="translate(293.701172 0.015625)"/>
     <use xlink:href="#OpenSans-Regular-20" transform="translate(341.503906 0.015625)"/>
     <use xlink:href="#OpenSans-Regular-6d" transform="translate(367.480469 0.015625)"/>
     <use xlink:href="#OpenSans-Regular-6f" transform="translate(460.058594 0.015625)"/>
     <use xlink:href="#OpenSans-Regular-64" transform="translate(520.214844 0.015625)"/>
     <use xlink:href="#OpenSans-Regular-65" transform="translate(581.396484 0.015625)"/>
     <use xlink:href="#OpenSans-Regular-6c" transform="translate(637.548828 0.015625)"/>
    </g>
   </g>
  </g>
  <g id="axes_2">
   <g id="patch_7">
    <path d="M 358.232 234.8556 
L 367.934 234.8556 
L 367.934 40.8156 
L 358.232 40.8156 
z
" style="fill: #ffffff"/>
   </g>
   <g id="QuadMesh_2">
    <path d="M 358.232 234.8556 
L 367.934 234.8556 
L 367.934 210.6006 
L 358.232 210.6006 
L 358.232 234.8556 
" clip-path="url(#pc3286176da)" style="fill: #440154"/>
    <path d="M 358.232 210.6006 
L 367.934 210.6006 
L 367.934 186.3456 
L 358.232 186.3456 
L 358.232 210.6006 
" clip-path="url(#pc3286176da)" style="fill: #46327e"/>
    <path d="M 358.232 186.3456 
L 367.934 186.3456 
L 367.934 162.0906 
L 358.232 162.0906 
L 358.232 186.3456 
" clip-path="url(#pc3286176da)" style="fill: #375b8d"/>
    <path d="M 358.232 162.0906 
L 367.934 162.0906 
L 367.934 137.8356 
L 358.232 137.8356 
L 358.232 162.0906 
" clip-path="url(#pc3286176da)" style="fill: #277f8e"/>
    <path d="M 358.232 137.8356 
L 367.934 137.8356 
L 367.934 113.5806 
L 358.232 113.5806 
L 358.232 137.8356 
" clip-path="url(#pc3286176da)" style="fill: #1fa188"/>
    <path d="M 358.232 113.5806 
L 367.934 113.5806 
L 367.934 89.3256 
L 358.232 89.3256 
L 358.232 113.5806 
" clip-path="url(#pc3286176da)" style="fill: #4ac16d"/>
    <path d="M 358.232 89.3256 
L 367.934 89.3256 
L 367.934 65.0706 
L 358.232 65.0706 
L 358.232 89.3256 
" clip-path="url(#pc3286176da)" style="fill: #9dd93b"/>
    <path d="M 358.232 65.0706 
L 367.934 65.0706 
L 367.934 40.8156 
L 358.232 40.8156 
L 358.232 65.0706 
" clip-path="url(#pc3286176da)" style="fill: #fde725"/>
   </g>
   <g id="matplotlib.axis_3"/>
   <g id="matplotlib.axis_4">
    <g id="ytick_23">
     <g id="line2d_31">
      <defs>
       <path id="m08161b300d" d="M 0 0 
L 3.5 0 
" style="stroke: #000000; stroke-width: 0.8"/>
      </defs>
      <g>
       <use xlink:href="#m08161b300d" x="367.934" y="234.8556" style="stroke: #000000; stroke-width: 0.8"/>
      </g>
     </g>
     <g id="text_15">
      <!-- 0 -->
      <g transform="translate(374.934 239.414663) scale(0.12 -0.12)">
       <use xlink:href="#OpenSans-Regular-30"/>
      </g>
     </g>
    </g>
    <g id="ytick_24">
     <g id="line2d_32">
      <g>
       <use xlink:href="#m08161b300d" x="367.934" y="210.6006" style="stroke: #000000; stroke-width: 0.8"/>
      </g>
     </g>
     <g id="text_16">
      <!-- 1 -->
      <g transform="translate(374.934 215.159663) scale(0.12 -0.12)">
       <use xlink:href="#OpenSans-Regular-31"/>
      </g>
     </g>
    </g>
    <g id="ytick_25">
     <g id="line2d_33">
      <g>
       <use xlink:href="#m08161b300d" x="367.934" y="186.3456" style="stroke: #000000; stroke-width: 0.8"/>
      </g>
     </g>
     <g id="text_17">
      <!-- 2 -->
      <g transform="translate(374.934 190.904663) scale(0.12 -0.12)">
       <use xlink:href="#OpenSans-Regular-32"/>
      </g>
     </g>
    </g>
    <g id="ytick_26">
     <g id="line2d_34">
      <g>
       <use xlink:href="#m08161b300d" x="367.934" y="162.0906" style="stroke: #000000; stroke-width: 0.8"/>
      </g>
     </g>
     <g id="text_18">
      <!-- 4 -->
      <g transform="translate(374.934 166.649663) scale(0.12 -0.12)">
       <use xlink:href="#OpenSans-Regular-34"/>
      </g>
     </g>
    </g>
    <g id="ytick_27">
     <g id="line2d_35">
      <g>
       <use xlink:href="#m08161b300d" x="367.934" y="137.8356" style="stroke: #000000; stroke-width: 0.8"/>
      </g>
     </g>
     <g id="text_19">
      <!-- 8 -->
      <g transform="translate(374.934 142.394663) scale(0.12 -0.12)">
       <defs>
        <path id="OpenSans-Regular-38" d="M 1825 4634 
Q 2222 4634 2528 4509 
Q 2834 4384 3007 4142 
Q 3181 3900 3181 3547 
Q 3181 3269 3061 3061 
Q 2941 2853 2737 2698 
Q 2534 2544 2288 2422 
Q 2581 2288 2817 2119 
Q 3053 1950 3190 1722 
Q 3328 1494 3328 1181 
Q 3328 797 3142 517 
Q 2956 238 2622 87 
Q 2288 -63 1838 -63 
Q 1353 -63 1014 82 
Q 675 228 498 501 
Q 322 775 322 1159 
Q 322 1475 456 1708 
Q 591 1941 812 2109 
Q 1034 2278 1297 2394 
Q 1069 2519 880 2678 
Q 691 2838 580 3052 
Q 469 3266 469 3550 
Q 469 3897 645 4139 
Q 822 4381 1130 4507 
Q 1438 4634 1825 4634 
z
M 831 1156 
Q 831 806 1078 579 
Q 1325 353 1825 353 
Q 2300 353 2559 579 
Q 2819 806 2819 1175 
Q 2819 1403 2700 1576 
Q 2581 1750 2362 1887 
Q 2144 2025 1847 2138 
L 1734 2178 
Q 1447 2059 1245 1914 
Q 1044 1769 937 1584 
Q 831 1400 831 1156 
z
M 1819 4209 
Q 1450 4209 1215 4032 
Q 981 3856 981 3525 
Q 981 3288 1095 3123 
Q 1209 2959 1406 2842 
Q 1603 2725 1847 2625 
Q 2084 2725 2268 2845 
Q 2453 2966 2559 3131 
Q 2666 3297 2666 3528 
Q 2666 3859 2433 4034 
Q 2200 4209 1819 4209 
z
" transform="scale(0.015625)"/>
       </defs>
       <use xlink:href="#OpenSans-Regular-38"/>
      </g>
     </g>
    </g>
    <g id="ytick_28">
     <g id="line2d_36">
      <g>
       <use xlink:href="#m08161b300d" x="367.934" y="113.5806" style="stroke: #000000; stroke-width: 0.8"/>
      </g>
     </g>
     <g id="text_20">
      <!-- 16 -->
      <g transform="translate(374.934 118.139663) scale(0.12 -0.12)">
       <defs>
        <path id="OpenSans-Regular-36" d="M 363 1953 
Q 363 2366 420 2759 
Q 478 3153 615 3492 
Q 753 3831 990 4087 
Q 1228 4344 1583 4489 
Q 1938 4634 2434 4634 
Q 2575 4634 2737 4620 
Q 2900 4606 3006 4575 
L 3006 4128 
Q 2891 4169 2742 4187 
Q 2594 4206 2444 4206 
Q 1863 4206 1530 3953 
Q 1197 3700 1050 3267 
Q 903 2834 881 2294 
L 916 2294 
Q 1013 2450 1163 2576 
Q 1313 2703 1527 2778 
Q 1741 2853 2025 2853 
Q 2425 2853 2723 2690 
Q 3022 2528 3186 2218 
Q 3350 1909 3350 1469 
Q 3350 997 3175 653 
Q 3000 309 2676 123 
Q 2353 -63 1906 -63 
Q 1572 -63 1290 65 
Q 1009 194 801 447 
Q 594 700 478 1076 
Q 363 1453 363 1953 
z
M 1900 375 
Q 2325 375 2581 647 
Q 2838 919 2838 1469 
Q 2838 1919 2609 2181 
Q 2381 2444 1922 2444 
Q 1609 2444 1378 2314 
Q 1147 2184 1019 1987 
Q 891 1791 891 1588 
Q 891 1381 952 1168 
Q 1013 956 1138 775 
Q 1263 594 1453 484 
Q 1644 375 1900 375 
z
" transform="scale(0.015625)"/>
       </defs>
       <use xlink:href="#OpenSans-Regular-31"/>
       <use xlink:href="#OpenSans-Regular-36" x="57.177734"/>
      </g>
     </g>
    </g>
    <g id="ytick_29">
     <g id="line2d_37">
      <g>
       <use xlink:href="#m08161b300d" x="367.934" y="89.3256" style="stroke: #000000; stroke-width: 0.8"/>
      </g>
     </g>
     <g id="text_21">
      <!-- 32 -->
      <g transform="translate(374.934 93.884663) scale(0.12 -0.12)">
       <use xlink:href="#OpenSans-Regular-33"/>
       <use xlink:href="#OpenSans-Regular-32" x="57.177734"/>
      </g>
     </g>
    </g>
    <g id="ytick_30">
     <g id="line2d_38">
      <g>
       <use xlink:href="#m08161b300d" x="367.934" y="65.0706" style="stroke: #000000; stroke-width: 0.8"/>
      </g>
     </g>
     <g id="text_22">
      <!-- 64 -->
      <g transform="translate(374.934 69.629663) scale(0.12 -0.12)">
       <use xlink:href="#OpenSans-Regular-36"/>
       <use xlink:href="#OpenSans-Regular-34" x="57.177734"/>
      </g>
     </g>
    </g>
    <g id="ytick_31">
     <g id="line2d_39">
      <g>
       <use xlink:href="#m08161b300d" x="367.934" y="40.8156" style="stroke: #000000; stroke-width: 0.8"/>
      </g>
     </g>
     <g id="text_23">
      <!-- 128 -->
      <g transform="translate(374.934 45.374663) scale(0.12 -0.12)">
       <use xlink:href="#OpenSans-Regular-31"/>
       <use xlink:href="#OpenSans-Regular-32" x="57.177734"/>
       <use xlink:href="#OpenSans-Regular-38" x="114.355469"/>
      </g>
     </g>
    </g>
    <g id="text_24">
     <!-- Detection time (number of distillations) -->
     <g transform="translate(408.634 247.13685) rotate(-90) scale(0.12 -0.12)">
      <defs>
       <path id="OpenSans-Regular-44" d="M 4253 2328 
Q 4253 1556 3972 1039 
Q 3691 522 3158 261 
Q 2625 0 1866 0 
L 625 0 
L 625 4569 
L 2003 4569 
Q 2700 4569 3203 4314 
Q 3706 4059 3979 3561 
Q 4253 3063 4253 2328 
z
M 3694 2309 
Q 3694 2925 3489 3325 
Q 3284 3725 2889 3920 
Q 2494 4116 1922 4116 
L 1156 4116 
L 1156 456 
L 1803 456 
Q 2747 456 3220 922 
Q 3694 1388 3694 2309 
z
" transform="scale(0.015625)"/>
       <path id="OpenSans-Regular-28" d="M 256 1753 
Q 256 2281 357 2781 
Q 459 3281 668 3734 
Q 878 4188 1197 4569 
L 1694 4569 
Q 1241 3975 1012 3250 
Q 784 2525 784 1759 
Q 784 1259 886 773 
Q 988 288 1189 -162 
Q 1391 -613 1688 -1013 
L 1197 -1013 
Q 878 -638 668 -195 
Q 459 247 357 740 
Q 256 1234 256 1753 
z
" transform="scale(0.015625)"/>
       <path id="OpenSans-Regular-29" d="M 1631 1759 
Q 1631 1238 1529 742 
Q 1428 247 1220 -197 
Q 1013 -641 691 -1013 
L 200 -1013 
Q 500 -616 701 -162 
Q 903 291 1004 777 
Q 1106 1263 1106 1763 
Q 1106 2272 1003 2765 
Q 900 3259 698 3715 
Q 497 4172 194 4569 
L 691 4569 
Q 1013 4184 1220 3732 
Q 1428 3281 1529 2782 
Q 1631 2284 1631 1759 
z
" transform="scale(0.015625)"/>
      </defs>
      <use xlink:href="#OpenSans-Regular-44"/>
      <use xlink:href="#OpenSans-Regular-65" x="72.558594"/>
      <use xlink:href="#OpenSans-Regular-74" x="128.710938"/>
      <use xlink:href="#OpenSans-Regular-65" x="164.355469"/>
      <use xlink:href="#OpenSans-Regular-63" x="220.507812"/>
      <use xlink:href="#OpenSans-Regular-74" x="268.408203"/>
      <use xlink:href="#OpenSans-Regular-69" x="304.052734"/>
      <use xlink:href="#OpenSans-Regular-6f" x="329.296875"/>
      <use xlink:href="#OpenSans-Regular-6e" x="389.453125"/>
      <use xlink:href="#OpenSans-Regular-20" x="450.78125"/>
      <use xlink:href="#OpenSans-Regular-74" x="476.757812"/>
      <use xlink:href="#OpenSans-Regular-69" x="512.402344"/>
      <use xlink:href="#OpenSans-Regular-6d" x="537.646484"/>
      <use xlink:href="#OpenSans-Regular-65" x="630.224609"/>
      <use xlink:href="#OpenSans-Regular-20" x="686.376953"/>
      <use xlink:href="#OpenSans-Regular-28" x="712.353516"/>
      <use xlink:href="#OpenSans-Regular-6e" x="741.845703"/>
      <use xlink:href="#OpenSans-Regular-75" x="803.173828"/>
      <use xlink:href="#OpenSans-Regular-6d" x="864.501953"/>
      <use xlink:href="#OpenSans-Regular-62" x="957.080078"/>
      <use xlink:href="#OpenSans-Regular-65" x="1018.261719"/>
      <use xlink:href="#OpenSans-Regular-72" x="1074.414062"/>
      <use xlink:href="#OpenSans-Regular-20" x="1115.283203"/>
      <use xlink:href="#OpenSans-Regular-6f" x="1141.259766"/>
      <use xlink:href="#OpenSans-Regular-66" x="1201.416016"/>
      <use xlink:href="#OpenSans-Regular-20" x="1235.058594"/>
      <use xlink:href="#OpenSans-Regular-64" x="1261.035156"/>
      <use xlink:href="#OpenSans-Regular-69" x="1322.216797"/>
      <use xlink:href="#OpenSans-Regular-73" x="1347.460938"/>
      <use xlink:href="#OpenSans-Regular-74" x="1395.117188"/>
      <use xlink:href="#OpenSans-Regular-69" x="1430.761719"/>
      <use xlink:href="#OpenSans-Regular-6c" x="1456.005859"/>
      <use xlink:href="#OpenSans-Regular-6c" x="1481.25"/>
      <use xlink:href="#OpenSans-Regular-61" x="1506.494141"/>
      <use xlink:href="#OpenSans-Regular-74" x="1562.060547"/>
      <use xlink:href="#OpenSans-Regular-69" x="1597.705078"/>
      <use xlink:href="#OpenSans-Regular-6f" x="1622.949219"/>
      <use xlink:href="#OpenSans-Regular-6e" x="1683.105469"/>
      <use xlink:href="#OpenSans-Regular-73" x="1744.433594"/>
      <use xlink:href="#OpenSans-Regular-29" x="1792.089844"/>
     </g>
    </g>
   </g>
   <g id="LineCollection_1"/>
   <g id="patch_8">
    <path d="M 358.232 234.8556 
L 363.083 234.8556 
L 367.934 234.8556 
L 367.934 40.8156 
L 363.083 40.8156 
L 358.232 40.8156 
L 358.232 234.8556 
z
" style="fill: none; stroke: #000000; stroke-width: 0.8; stroke-linejoin: miter; stroke-linecap: square"/>
   </g>
  </g>
 </g>
 <defs>
  <clipPath id="p97c29ded13">
   <rect x="54.68" y="40.8156" width="285.696" height="194.04"/>
  </clipPath>
  <clipPath id="pc3286176da">
   <rect x="358.232" y="40.8156" width="9.702" height="194.04"/>
  </clipPath>
 </defs>
</svg>
