<?xml version="1.0" encoding="utf-8" standalone="no"?>
<!DOCTYPE svg PUBLIC "-//W3C//DTD SVG 1.1//EN"
  "http://www.w3.org/Graphics/SVG/1.1/DTD/svg11.dtd">
<svg xmlns:xlink="http://www.w3.org/1999/xlink" width="458.276875pt" height="332.59025pt" viewBox="0 0 458.276875 332.59025" xmlns="http://www.w3.org/2000/svg" version="1.1">
 <metadata>
  <rdf:RDF xmlns:dc="http://purl.org/dc/elements/1.1/" xmlns:cc="http://creativecommons.org/ns#" xmlns:rdf="http://www.w3.org/1999/02/22-rdf-syntax-ns#">
   <cc:Work>
    <dc:type rdf:resource="http://purl.org/dc/dcmitype/StillImage"/>
    <dc:date>2024-03-25T09:48:30.380571</dc:date>
    <dc:format>image/svg+xml</dc:format>
    <dc:creator>
     <cc:Agent>
      <dc:title>Matplotlib v3.8.2, https://matplotlib.org/</dc:title>
     </cc:Agent>
    </dc:creator>
   </cc:Work>
  </rdf:RDF>
 </metadata>
 <defs>
  <style type="text/css">*{stroke-linejoin: round; stroke-linecap: butt}</style>
 </defs>
 <g id="figure_1">
  <g id="patch_1">
   <path d="M 0 332.59025 
L 458.276875 332.59025 
L 458.276875 0 
L 0 0 
z
" style="fill: #ffffff"/>
  </g>
  <g id="axes_1">
   <g id="patch_2">
    <path d="M 54.081875 290.33025 
L 411.201875 290.33025 
L 411.201875 24.21825 
L 54.081875 24.21825 
z
" style="fill: #ffffff"/>
   </g>
   <g id="PolyCollection_1">
    <defs>
     <path id="m088dcac762" d="M 70.314602 -285.111908 
L 70.314602 -284.487197 
L 87.401684 -284.661767 
L 104.488765 -285.285979 
L 121.575846 -284.809656 
L 138.662928 -283.050921 
L 155.750009 -278.372482 
L 172.83709 -271.348041 
L 189.924172 -260.241533 
L 207.011253 -244.594419 
L 224.098334 -219.627111 
L 241.185416 -184.897324 
L 258.272497 -144.644554 
L 275.359578 -98.289652 
L 292.44666 -70.753354 
L 309.533741 -59.428935 
L 326.620822 -58.645896 
L 343.707904 -58.24879 
L 360.794985 -61.416526 
L 377.882066 -60.054546 
L 394.969148 -60.339695 
L 394.969148 -70.241388 
L 394.969148 -70.241388 
L 377.882066 -69.989461 
L 360.794985 -71.192667 
L 343.707904 -68.397665 
L 326.620822 -68.747525 
L 309.533741 -69.437753 
L 292.44666 -79.505241 
L 275.359578 -104.580773 
L 258.272497 -148.220564 
L 241.185416 -187.072784 
L 224.098334 -221.037367 
L 207.011253 -245.625685 
L 189.924172 -261.090042 
L 172.83709 -272.08181 
L 155.750009 -279.045564 
L 138.662928 -283.683673 
L 121.575846 -285.432999 
L 104.488765 -285.900446 
L 87.401684 -285.282566 
L 70.314602 -285.111908 
z
" style="stroke: #0072b2; stroke-opacity: 0.2"/>
    </defs>
    <g clip-path="url(#p5f2acf3221)">
     <use xlink:href="#m088dcac762" x="0" y="332.59025" style="fill: #0072b2; fill-opacity: 0.2; stroke: #0072b2; stroke-opacity: 0.2"/>
    </g>
   </g>
   <g id="PolyCollection_2">
    <defs>
     <path id="mf9f912c6af" d="M 70.314602 -71.961223 
L 70.314602 -62.284855 
L 87.401684 -62.284855 
L 104.488765 -62.284855 
L 121.575846 -62.284855 
L 138.662928 -62.284855 
L 155.750009 -62.284855 
L 172.83709 -62.284855 
L 189.924172 -62.284855 
L 207.011253 -62.284855 
L 224.098334 -62.284855 
L 241.185416 -62.284855 
L 258.272497 -62.284855 
L 275.359578 -62.284855 
L 292.44666 -62.284855 
L 309.533741 -62.284855 
L 326.620822 -62.284855 
L 343.707904 -62.284855 
L 360.794985 -62.284855 
L 377.882066 -62.284855 
L 394.969148 -62.284855 
L 394.969148 -71.961223 
L 394.969148 -71.961223 
L 377.882066 -71.961223 
L 360.794985 -71.961223 
L 343.707904 -71.961223 
L 326.620822 -71.961223 
L 309.533741 -71.961223 
L 292.44666 -71.961223 
L 275.359578 -71.961223 
L 258.272497 -71.961223 
L 241.185416 -71.961223 
L 224.098334 -71.961223 
L 207.011253 -71.961223 
L 189.924172 -71.961223 
L 172.83709 -71.961223 
L 155.750009 -71.961223 
L 138.662928 -71.961223 
L 121.575846 -71.961223 
L 104.488765 -71.961223 
L 87.401684 -71.961223 
L 70.314602 -71.961223 
z
" style="stroke: #009e73; stroke-opacity: 0.2"/>
    </defs>
    <g clip-path="url(#p5f2acf3221)">
     <use xlink:href="#mf9f912c6af" x="0" y="332.59025" style="fill: #009e73; fill-opacity: 0.2; stroke: #009e73; stroke-opacity: 0.2"/>
    </g>
   </g>
   <g id="matplotlib.axis_1">
    <g id="xtick_1">
     <g id="line2d_1">
      <defs>
       <path id="m1605f77ebb" d="M 0 0 
L 0 3.5 
" style="stroke: #000000; stroke-width: 0.8"/>
      </defs>
      <g>
       <use xlink:href="#m1605f77ebb" x="70.314602" y="290.33025" style="stroke: #000000; stroke-width: 0.8"/>
      </g>
     </g>
     <g id="text_1">
      <!-- 0.0 -->
      <g transform="translate(61.87804 306.448375) scale(0.12 -0.12)">
       <defs>
        <path id="OpenSans-Regular-30" d="M 3334 2291 
Q 3334 1734 3250 1296 
Q 3166 859 2984 556 
Q 2803 253 2515 95 
Q 2228 -63 1825 -63 
Q 1316 -63 983 215 
Q 650 494 486 1020 
Q 322 1547 322 2291 
Q 322 3022 470 3548 
Q 619 4075 950 4358 
Q 1281 4641 1825 4641 
Q 2341 4641 2675 4361 
Q 3009 4081 3171 3554 
Q 3334 3028 3334 2291 
z
M 844 2291 
Q 844 1653 941 1228 
Q 1038 803 1255 592 
Q 1472 381 1825 381 
Q 2178 381 2395 590 
Q 2613 800 2711 1225 
Q 2809 1650 2809 2291 
Q 2809 2919 2712 3342 
Q 2616 3766 2400 3980 
Q 2184 4194 1825 4194 
Q 1466 4194 1250 3980 
Q 1034 3766 939 3342 
Q 844 2919 844 2291 
z
" transform="scale(0.015625)"/>
        <path id="OpenSans-Regular-2e" d="M 469 325 
Q 469 544 575 636 
Q 681 728 834 728 
Q 994 728 1103 636 
Q 1213 544 1213 325 
Q 1213 109 1103 10 
Q 994 -88 834 -88 
Q 681 -88 575 10 
Q 469 109 469 325 
z
" transform="scale(0.015625)"/>
       </defs>
       <use xlink:href="#OpenSans-Regular-30"/>
       <use xlink:href="#OpenSans-Regular-2e" x="57.177734"/>
       <use xlink:href="#OpenSans-Regular-30" x="83.447266"/>
      </g>
     </g>
    </g>
    <g id="xtick_2">
     <g id="line2d_2">
      <g>
       <use xlink:href="#m1605f77ebb" x="113.032306" y="290.33025" style="stroke: #000000; stroke-width: 0.8"/>
      </g>
     </g>
     <g id="text_2">
      <!-- 2.5 -->
      <g transform="translate(104.595743 306.448375) scale(0.12 -0.12)">
       <defs>
        <path id="OpenSans-Regular-32" d="M 3309 0 
L 316 0 
L 316 434 
L 1538 1675 
Q 1878 2019 2111 2287 
Q 2344 2556 2466 2817 
Q 2588 3078 2588 3391 
Q 2588 3778 2358 3983 
Q 2128 4188 1753 4188 
Q 1425 4188 1172 4075 
Q 919 3963 653 3756 
L 375 4106 
Q 556 4259 770 4378 
Q 984 4497 1229 4565 
Q 1475 4634 1753 4634 
Q 2175 4634 2481 4487 
Q 2788 4341 2955 4069 
Q 3122 3797 3122 3422 
Q 3122 3059 2978 2748 
Q 2834 2438 2575 2133 
Q 2316 1828 1969 1488 
L 975 497 
L 975 475 
L 3309 475 
L 3309 0 
z
" transform="scale(0.015625)"/>
        <path id="OpenSans-Regular-35" d="M 1759 2794 
Q 2225 2794 2569 2636 
Q 2913 2478 3102 2178 
Q 3291 1878 3291 1450 
Q 3291 981 3087 642 
Q 2884 303 2503 120 
Q 2122 -63 1591 -63 
Q 1234 -63 928 0 
Q 622 63 413 188 
L 413 681 
Q 641 544 966 462 
Q 1291 381 1597 381 
Q 1944 381 2205 492 
Q 2466 603 2611 829 
Q 2756 1056 2756 1400 
Q 2756 1856 2476 2104 
Q 2197 2353 1594 2353 
Q 1400 2353 1169 2322 
Q 938 2291 788 2253 
L 525 2425 
L 700 4569 
L 2972 4569 
L 2972 4094 
L 1144 4094 
L 1028 2716 
Q 1147 2741 1334 2767 
Q 1522 2794 1759 2794 
z
" transform="scale(0.015625)"/>
       </defs>
       <use xlink:href="#OpenSans-Regular-32"/>
       <use xlink:href="#OpenSans-Regular-2e" x="57.177734"/>
       <use xlink:href="#OpenSans-Regular-35" x="83.447266"/>
      </g>
     </g>
    </g>
    <g id="xtick_3">
     <g id="line2d_3">
      <g>
       <use xlink:href="#m1605f77ebb" x="155.750009" y="290.33025" style="stroke: #000000; stroke-width: 0.8"/>
      </g>
     </g>
     <g id="text_3">
      <!-- 5.0 -->
      <g transform="translate(147.313446 306.448375) scale(0.12 -0.12)">
       <use xlink:href="#OpenSans-Regular-35"/>
       <use xlink:href="#OpenSans-Regular-2e" x="57.177734"/>
       <use xlink:href="#OpenSans-Regular-30" x="83.447266"/>
      </g>
     </g>
    </g>
    <g id="xtick_4">
     <g id="line2d_4">
      <g>
       <use xlink:href="#m1605f77ebb" x="198.467712" y="290.33025" style="stroke: #000000; stroke-width: 0.8"/>
      </g>
     </g>
     <g id="text_4">
      <!-- 7.5 -->
      <g transform="translate(190.03115 306.448375) scale(0.12 -0.12)">
       <defs>
        <path id="OpenSans-Regular-37" d="M 906 0 
L 2781 4094 
L 291 4094 
L 291 4569 
L 3338 4569 
L 3338 4169 
L 1475 0 
L 906 0 
z
" transform="scale(0.015625)"/>
       </defs>
       <use xlink:href="#OpenSans-Regular-37"/>
       <use xlink:href="#OpenSans-Regular-2e" x="57.177734"/>
       <use xlink:href="#OpenSans-Regular-35" x="83.447266"/>
      </g>
     </g>
    </g>
    <g id="xtick_5">
     <g id="line2d_5">
      <g>
       <use xlink:href="#m1605f77ebb" x="241.185416" y="290.33025" style="stroke: #000000; stroke-width: 0.8"/>
      </g>
     </g>
     <g id="text_5">
      <!-- 10.0 -->
      <g transform="translate(229.318541 306.448375) scale(0.12 -0.12)">
       <defs>
        <path id="OpenSans-Regular-31" d="M 2247 0 
L 1741 0 
L 1741 3238 
Q 1741 3422 1742 3555 
Q 1744 3688 1748 3798 
Q 1753 3909 1763 4025 
Q 1666 3925 1581 3854 
Q 1497 3784 1372 3681 
L 850 3263 
L 578 3616 
L 1816 4569 
L 2247 4569 
L 2247 0 
z
" transform="scale(0.015625)"/>
       </defs>
       <use xlink:href="#OpenSans-Regular-31"/>
       <use xlink:href="#OpenSans-Regular-30" x="57.177734"/>
       <use xlink:href="#OpenSans-Regular-2e" x="114.355469"/>
       <use xlink:href="#OpenSans-Regular-30" x="140.625"/>
      </g>
     </g>
    </g>
    <g id="xtick_6">
     <g id="line2d_6">
      <g>
       <use xlink:href="#m1605f77ebb" x="283.903119" y="290.33025" style="stroke: #000000; stroke-width: 0.8"/>
      </g>
     </g>
     <g id="text_6">
      <!-- 12.5 -->
      <g transform="translate(272.036244 306.448375) scale(0.12 -0.12)">
       <use xlink:href="#OpenSans-Regular-31"/>
       <use xlink:href="#OpenSans-Regular-32" x="57.177734"/>
       <use xlink:href="#OpenSans-Regular-2e" x="114.355469"/>
       <use xlink:href="#OpenSans-Regular-35" x="140.625"/>
      </g>
     </g>
    </g>
    <g id="xtick_7">
     <g id="line2d_7">
      <g>
       <use xlink:href="#m1605f77ebb" x="326.620822" y="290.33025" style="stroke: #000000; stroke-width: 0.8"/>
      </g>
     </g>
     <g id="text_7">
      <!-- 15.0 -->
      <g transform="translate(314.753947 306.448375) scale(0.12 -0.12)">
       <use xlink:href="#OpenSans-Regular-31"/>
       <use xlink:href="#OpenSans-Regular-35" x="57.177734"/>
       <use xlink:href="#OpenSans-Regular-2e" x="114.355469"/>
       <use xlink:href="#OpenSans-Regular-30" x="140.625"/>
      </g>
     </g>
    </g>
    <g id="xtick_8">
     <g id="line2d_8">
      <g>
       <use xlink:href="#m1605f77ebb" x="369.338526" y="290.33025" style="stroke: #000000; stroke-width: 0.8"/>
      </g>
     </g>
     <g id="text_8">
      <!-- 17.5 -->
      <g transform="translate(357.471651 306.448375) scale(0.12 -0.12)">
       <use xlink:href="#OpenSans-Regular-31"/>
       <use xlink:href="#OpenSans-Regular-37" x="57.177734"/>
       <use xlink:href="#OpenSans-Regular-2e" x="114.355469"/>
       <use xlink:href="#OpenSans-Regular-35" x="140.625"/>
      </g>
     </g>
    </g>
    <g id="text_9">
     <!-- Ray distance offset from patch center (qubit spacings) -->
     <g transform="translate(82.74875 322.500875) scale(0.12 -0.12)">
      <defs>
       <path id="OpenSans-Regular-52" d="M 1859 4569 
Q 2422 4569 2789 4430 
Q 3156 4291 3337 4006 
Q 3519 3722 3519 3281 
Q 3519 2919 3387 2676 
Q 3256 2434 3043 2284 
Q 2831 2134 2591 2053 
L 3844 0 
L 3225 0 
L 2106 1906 
L 1156 1906 
L 1156 0 
L 625 0 
L 625 4569 
L 1859 4569 
z
M 1828 4109 
L 1156 4109 
L 1156 2356 
L 1881 2356 
Q 2441 2356 2705 2584 
Q 2969 2813 2969 3256 
Q 2969 3722 2689 3915 
Q 2409 4109 1828 4109 
z
" transform="scale(0.015625)"/>
       <path id="OpenSans-Regular-61" d="M 1828 3481 
Q 2441 3481 2737 3206 
Q 3034 2931 3034 2328 
L 3034 0 
L 2656 0 
L 2556 506 
L 2531 506 
Q 2388 319 2231 192 
Q 2075 66 1870 1 
Q 1666 -63 1369 -63 
Q 1056 -63 814 46 
Q 572 156 433 378 
Q 294 600 294 941 
Q 294 1453 700 1728 
Q 1106 2003 1938 2028 
L 2528 2053 
L 2528 2263 
Q 2528 2706 2337 2884 
Q 2147 3063 1800 3063 
Q 1531 3063 1287 2984 
Q 1044 2906 825 2800 
L 666 3194 
Q 897 3313 1197 3397 
Q 1497 3481 1828 3481 
z
M 2522 1688 
L 2000 1666 
Q 1359 1641 1096 1456 
Q 834 1272 834 934 
Q 834 641 1012 500 
Q 1191 359 1484 359 
Q 1941 359 2231 612 
Q 2522 866 2522 1372 
L 2522 1688 
z
" transform="scale(0.015625)"/>
       <path id="OpenSans-Regular-79" d="M 6 3425 
L 563 3425 
L 1319 1438 
Q 1384 1263 1440 1102 
Q 1497 941 1540 794 
Q 1584 647 1609 509 
L 1631 509 
Q 1675 666 1756 920 
Q 1838 1175 1931 1441 
L 2647 3425 
L 3206 3425 
L 1716 -503 
Q 1597 -819 1439 -1053 
Q 1281 -1288 1056 -1414 
Q 831 -1541 513 -1541 
Q 366 -1541 253 -1523 
Q 141 -1506 59 -1484 
L 59 -1069 
Q 128 -1084 226 -1096 
Q 325 -1109 431 -1109 
Q 625 -1109 767 -1036 
Q 909 -963 1012 -822 
Q 1116 -681 1191 -488 
L 1378 -6 
L 6 3425 
z
" transform="scale(0.015625)"/>
       <path id="OpenSans-Regular-20" transform="scale(0.015625)"/>
       <path id="OpenSans-Regular-64" d="M 1766 -63 
Q 1116 -63 736 381 
Q 356 825 356 1700 
Q 356 2584 743 3036 
Q 1131 3488 1775 3488 
Q 2047 3488 2250 3416 
Q 2453 3344 2600 3223 
Q 2747 3103 2847 2950 
L 2884 2950 
Q 2872 3047 2859 3215 
Q 2847 3384 2847 3491 
L 2847 4863 
L 3366 4863 
L 3366 0 
L 2947 0 
L 2869 488 
L 2847 488 
Q 2750 334 2601 209 
Q 2453 84 2248 10 
Q 2044 -63 1766 -63 
z
M 1847 369 
Q 2397 369 2625 681 
Q 2853 994 2853 1609 
L 2853 1703 
Q 2853 2356 2636 2706 
Q 2419 3056 1847 3056 
Q 1369 3056 1131 2689 
Q 894 2322 894 1688 
Q 894 1056 1130 712 
Q 1366 369 1847 369 
z
" transform="scale(0.015625)"/>
       <path id="OpenSans-Regular-69" d="M 1066 3425 
L 1066 0 
L 547 0 
L 547 3425 
L 1066 3425 
z
M 813 4706 
Q 941 4706 1033 4623 
Q 1125 4541 1125 4366 
Q 1125 4194 1033 4109 
Q 941 4025 813 4025 
Q 678 4025 589 4109 
Q 500 4194 500 4366 
Q 500 4541 589 4623 
Q 678 4706 813 4706 
z
" transform="scale(0.015625)"/>
       <path id="OpenSans-Regular-73" d="M 2763 938 
Q 2763 609 2598 386 
Q 2434 163 2129 50 
Q 1825 -63 1403 -63 
Q 1044 -63 781 -6 
Q 519 50 322 153 
L 322 631 
Q 531 528 822 443 
Q 1113 359 1416 359 
Q 1859 359 2059 503 
Q 2259 647 2259 894 
Q 2259 1034 2179 1142 
Q 2100 1250 1912 1351 
Q 1725 1453 1394 1575 
Q 1066 1700 827 1823 
Q 588 1947 458 2125 
Q 328 2303 328 2588 
Q 328 3022 679 3255 
Q 1031 3488 1603 3488 
Q 1913 3488 2183 3427 
Q 2453 3366 2688 3263 
L 2513 2847 
Q 2300 2938 2059 3000 
Q 1819 3063 1569 3063 
Q 1209 3063 1017 2944 
Q 825 2825 825 2619 
Q 825 2459 914 2356 
Q 1003 2253 1200 2162 
Q 1397 2072 1719 1950 
Q 2041 1831 2275 1704 
Q 2509 1578 2636 1398 
Q 2763 1219 2763 938 
z
" transform="scale(0.015625)"/>
       <path id="OpenSans-Regular-74" d="M 1653 363 
Q 1781 363 1915 384 
Q 2050 406 2134 438 
L 2134 34 
Q 2044 -6 1883 -34 
Q 1722 -63 1569 -63 
Q 1297 -63 1075 32 
Q 853 128 720 356 
Q 588 584 588 988 
L 588 3019 
L 100 3019 
L 100 3272 
L 591 3475 
L 797 4219 
L 1109 4219 
L 1109 3425 
L 2113 3425 
L 2113 3019 
L 1109 3019 
L 1109 1003 
Q 1109 681 1257 522 
Q 1406 363 1653 363 
z
" transform="scale(0.015625)"/>
       <path id="OpenSans-Regular-6e" d="M 2169 3488 
Q 2778 3488 3090 3189 
Q 3403 2891 3403 2231 
L 3403 0 
L 2891 0 
L 2891 2197 
Q 2891 2625 2695 2837 
Q 2500 3050 2097 3050 
Q 1528 3050 1297 2728 
Q 1066 2406 1066 1794 
L 1066 0 
L 547 0 
L 547 3425 
L 966 3425 
L 1044 2931 
L 1072 2931 
Q 1181 3113 1350 3236 
Q 1519 3359 1728 3423 
Q 1938 3488 2169 3488 
z
" transform="scale(0.015625)"/>
       <path id="OpenSans-Regular-63" d="M 1919 -63 
Q 1456 -63 1103 128 
Q 750 319 553 709 
Q 356 1100 356 1694 
Q 356 2316 564 2711 
Q 772 3106 1137 3297 
Q 1503 3488 1969 3488 
Q 2225 3488 2464 3436 
Q 2703 3384 2856 3306 
L 2700 2872 
Q 2544 2934 2339 2984 
Q 2134 3034 1956 3034 
Q 1600 3034 1364 2881 
Q 1128 2728 1011 2431 
Q 894 2134 894 1700 
Q 894 1284 1008 990 
Q 1122 697 1348 542 
Q 1575 388 1916 388 
Q 2188 388 2406 445 
Q 2625 503 2803 581 
L 2803 119 
Q 2631 31 2420 -16 
Q 2209 -63 1919 -63 
z
" transform="scale(0.015625)"/>
       <path id="OpenSans-Regular-65" d="M 1866 3488 
Q 2303 3488 2615 3294 
Q 2928 3100 3093 2751 
Q 3259 2403 3259 1938 
L 3259 1616 
L 894 1616 
Q 903 1013 1193 697 
Q 1484 381 2013 381 
Q 2338 381 2588 440 
Q 2838 500 3106 616 
L 3106 159 
Q 2847 44 2592 -9 
Q 2338 -63 1991 -63 
Q 1497 -63 1130 139 
Q 763 341 559 731 
Q 356 1122 356 1688 
Q 356 2241 542 2645 
Q 728 3050 1067 3269 
Q 1406 3488 1866 3488 
z
M 1859 3063 
Q 1444 3063 1197 2791 
Q 950 2519 903 2031 
L 2716 2031 
Q 2713 2338 2620 2570 
Q 2528 2803 2340 2933 
Q 2153 3063 1859 3063 
z
" transform="scale(0.015625)"/>
       <path id="OpenSans-Regular-6f" d="M 3500 1719 
Q 3500 1297 3390 965 
Q 3281 634 3075 406 
Q 2869 178 2576 57 
Q 2284 -63 1916 -63 
Q 1572 -63 1286 57 
Q 1000 178 792 406 
Q 584 634 470 965 
Q 356 1297 356 1719 
Q 356 2281 547 2676 
Q 738 3072 1092 3280 
Q 1447 3488 1938 3488 
Q 2406 3488 2757 3278 
Q 3109 3069 3304 2673 
Q 3500 2278 3500 1719 
z
M 894 1719 
Q 894 1306 1003 1003 
Q 1113 700 1341 534 
Q 1569 369 1928 369 
Q 2284 369 2514 534 
Q 2744 700 2853 1003 
Q 2963 1306 2963 1719 
Q 2963 2128 2853 2426 
Q 2744 2725 2516 2887 
Q 2288 3050 1925 3050 
Q 1391 3050 1142 2697 
Q 894 2344 894 1719 
z
" transform="scale(0.015625)"/>
       <path id="OpenSans-Regular-66" d="M 2072 3019 
L 1219 3019 
L 1219 0 
L 700 0 
L 700 3019 
L 94 3019 
L 94 3269 
L 700 3441 
L 700 3669 
Q 700 4100 828 4370 
Q 956 4641 1200 4769 
Q 1444 4897 1794 4897 
Q 1991 4897 2155 4862 
Q 2319 4828 2444 4784 
L 2309 4375 
Q 2203 4409 2070 4439 
Q 1938 4469 1800 4469 
Q 1503 4469 1361 4276 
Q 1219 4084 1219 3675 
L 1219 3425 
L 2072 3425 
L 2072 3019 
z
" transform="scale(0.015625)"/>
       <path id="OpenSans-Regular-72" d="M 2103 3488 
Q 2206 3488 2318 3477 
Q 2431 3466 2519 3447 
L 2453 2966 
Q 2369 2988 2266 3000 
Q 2163 3013 2072 3013 
Q 1866 3013 1683 2930 
Q 1500 2847 1362 2692 
Q 1225 2538 1147 2320 
Q 1069 2103 1069 1838 
L 1069 0 
L 547 0 
L 547 3425 
L 978 3425 
L 1034 2794 
L 1056 2794 
Q 1163 2984 1313 3142 
Q 1463 3300 1661 3394 
Q 1859 3488 2103 3488 
z
" transform="scale(0.015625)"/>
       <path id="OpenSans-Regular-6d" d="M 4266 3488 
Q 4831 3488 5118 3192 
Q 5406 2897 5406 2244 
L 5406 0 
L 4894 0 
L 4894 2219 
Q 4894 2634 4714 2842 
Q 4534 3050 4181 3050 
Q 3684 3050 3459 2762 
Q 3234 2475 3234 1916 
L 3234 0 
L 2719 0 
L 2719 2219 
Q 2719 2497 2639 2681 
Q 2559 2866 2401 2958 
Q 2244 3050 2003 3050 
Q 1663 3050 1456 2909 
Q 1250 2769 1158 2492 
Q 1066 2216 1066 1813 
L 1066 0 
L 547 0 
L 547 3425 
L 966 3425 
L 1044 2941 
L 1072 2941 
Q 1175 3119 1331 3241 
Q 1488 3363 1681 3425 
Q 1875 3488 2094 3488 
Q 2484 3488 2748 3342 
Q 3013 3197 3131 2900 
L 3159 2900 
Q 3328 3197 3622 3342 
Q 3916 3488 4266 3488 
z
" transform="scale(0.015625)"/>
       <path id="OpenSans-Regular-70" d="M 2156 3488 
Q 2797 3488 3178 3047 
Q 3559 2606 3559 1722 
Q 3559 1138 3384 741 
Q 3209 344 2892 140 
Q 2575 -63 2144 -63 
Q 1872 -63 1665 9 
Q 1459 81 1312 203 
Q 1166 325 1069 469 
L 1031 469 
Q 1041 347 1055 175 
Q 1069 3 1069 -125 
L 1069 -1531 
L 547 -1531 
L 547 3425 
L 975 3425 
L 1044 2919 
L 1069 2919 
Q 1169 3075 1312 3204 
Q 1456 3334 1664 3411 
Q 1872 3488 2156 3488 
z
M 2066 3050 
Q 1709 3050 1492 2912 
Q 1275 2775 1175 2501 
Q 1075 2228 1069 1816 
L 1069 1716 
Q 1069 1281 1164 981 
Q 1259 681 1479 525 
Q 1700 369 2072 369 
Q 2391 369 2603 541 
Q 2816 713 2920 1020 
Q 3025 1328 3025 1728 
Q 3025 2334 2789 2692 
Q 2553 3050 2066 3050 
z
" transform="scale(0.015625)"/>
       <path id="OpenSans-Regular-68" d="M 1066 4863 
L 1066 3409 
Q 1066 3284 1059 3157 
Q 1053 3031 1038 2925 
L 1072 2925 
Q 1178 3106 1342 3229 
Q 1506 3353 1715 3417 
Q 1925 3481 2159 3481 
Q 2572 3481 2848 3350 
Q 3125 3219 3264 2944 
Q 3403 2669 3403 2231 
L 3403 0 
L 2891 0 
L 2891 2197 
Q 2891 2625 2695 2837 
Q 2500 3050 2097 3050 
Q 1716 3050 1489 2904 
Q 1263 2759 1164 2478 
Q 1066 2197 1066 1791 
L 1066 0 
L 547 0 
L 547 4863 
L 1066 4863 
z
" transform="scale(0.015625)"/>
       <path id="OpenSans-Regular-28" d="M 256 1753 
Q 256 2281 357 2781 
Q 459 3281 668 3734 
Q 878 4188 1197 4569 
L 1694 4569 
Q 1241 3975 1012 3250 
Q 784 2525 784 1759 
Q 784 1259 886 773 
Q 988 288 1189 -162 
Q 1391 -613 1688 -1013 
L 1197 -1013 
Q 878 -638 668 -195 
Q 459 247 357 740 
Q 256 1234 256 1753 
z
" transform="scale(0.015625)"/>
       <path id="OpenSans-Regular-71" d="M 2844 -1531 
L 2844 -63 
Q 2844 59 2850 218 
Q 2856 378 2872 494 
L 2838 494 
Q 2694 256 2428 96 
Q 2163 -63 1744 -63 
Q 1116 -63 734 381 
Q 353 825 353 1706 
Q 353 2284 528 2681 
Q 703 3078 1023 3283 
Q 1344 3488 1772 3488 
Q 2181 3488 2440 3327 
Q 2700 3166 2847 2934 
L 2872 2934 
L 2950 3425 
L 3363 3425 
L 3363 -1531 
L 2844 -1531 
z
M 1841 369 
Q 2203 369 2422 505 
Q 2641 641 2742 916 
Q 2844 1191 2850 1600 
L 2850 1709 
Q 2850 2372 2625 2714 
Q 2400 3056 1841 3056 
Q 1359 3056 1125 2689 
Q 891 2322 891 1694 
Q 891 1066 1125 717 
Q 1359 369 1841 369 
z
" transform="scale(0.015625)"/>
       <path id="OpenSans-Regular-75" d="M 3375 3425 
L 3375 0 
L 2950 0 
L 2875 481 
L 2847 481 
Q 2741 303 2572 181 
Q 2403 59 2192 -2 
Q 1981 -63 1744 -63 
Q 1338 -63 1063 68 
Q 788 200 648 475 
Q 509 750 509 1181 
L 509 3425 
L 1034 3425 
L 1034 1219 
Q 1034 791 1228 580 
Q 1422 369 1819 369 
Q 2200 369 2426 512 
Q 2653 656 2753 936 
Q 2853 1216 2853 1622 
L 2853 3425 
L 3375 3425 
z
" transform="scale(0.015625)"/>
       <path id="OpenSans-Regular-62" d="M 1066 4863 
L 1066 3647 
Q 1066 3438 1055 3241 
Q 1044 3044 1038 2934 
L 1066 2934 
Q 1206 3166 1472 3325 
Q 1738 3484 2150 3484 
Q 2794 3484 3176 3039 
Q 3559 2594 3559 1716 
Q 3559 1138 3384 741 
Q 3209 344 2890 140 
Q 2572 -63 2138 -63 
Q 1731 -63 1470 89 
Q 1209 241 1069 459 
L 1028 459 
L 922 0 
L 547 0 
L 547 4863 
L 1066 4863 
z
M 2066 3050 
Q 1694 3050 1475 2904 
Q 1256 2759 1161 2467 
Q 1066 2175 1066 1728 
L 1066 1700 
Q 1066 1053 1281 711 
Q 1497 369 2066 369 
Q 2544 369 2783 719 
Q 3022 1069 3022 1719 
Q 3022 2381 2786 2715 
Q 2550 3050 2066 3050 
z
" transform="scale(0.015625)"/>
       <path id="OpenSans-Regular-67" d="M 1503 -1538 
Q 828 -1538 462 -1286 
Q 97 -1034 97 -581 
Q 97 -259 301 -31 
Q 506 197 869 272 
Q 734 334 639 459 
Q 544 584 544 747 
Q 544 934 648 1076 
Q 753 1219 969 1350 
Q 700 1459 533 1720 
Q 366 1981 366 2328 
Q 366 2697 519 2958 
Q 672 3219 962 3356 
Q 1253 3494 1666 3494 
Q 1756 3494 1848 3486 
Q 1941 3478 2025 3464 
Q 2109 3450 2172 3431 
L 3347 3431 
L 3347 3097 
L 2716 3019 
Q 2809 2897 2871 2725 
Q 2934 2553 2934 2344 
Q 2934 1831 2587 1529 
Q 2241 1228 1634 1228 
Q 1491 1228 1341 1253 
Q 1188 1169 1108 1066 
Q 1028 963 1028 828 
Q 1028 728 1089 668 
Q 1150 609 1265 582 
Q 1381 556 1544 556 
L 2147 556 
Q 2706 556 3004 322 
Q 3303 88 3303 -363 
Q 3303 -931 2840 -1234 
Q 2378 -1538 1503 -1538 
z
M 1519 -1131 
Q 1944 -1131 2223 -1045 
Q 2503 -959 2642 -798 
Q 2781 -638 2781 -416 
Q 2781 -209 2687 -104 
Q 2594 0 2412 36 
Q 2231 72 1969 72 
L 1375 72 
Q 1144 72 972 0 
Q 800 -72 708 -212 
Q 616 -353 616 -563 
Q 616 -841 850 -986 
Q 1084 -1131 1519 -1131 
z
M 1653 1606 
Q 2025 1606 2212 1793 
Q 2400 1981 2400 2341 
Q 2400 2725 2209 2917 
Q 2019 3109 1647 3109 
Q 1291 3109 1098 2911 
Q 906 2713 906 2331 
Q 906 1981 1100 1793 
Q 1294 1606 1653 1606 
z
" transform="scale(0.015625)"/>
       <path id="OpenSans-Regular-29" d="M 1631 1759 
Q 1631 1238 1529 742 
Q 1428 247 1220 -197 
Q 1013 -641 691 -1013 
L 200 -1013 
Q 500 -616 701 -162 
Q 903 291 1004 777 
Q 1106 1263 1106 1763 
Q 1106 2272 1003 2765 
Q 900 3259 698 3715 
Q 497 4172 194 4569 
L 691 4569 
Q 1013 4184 1220 3732 
Q 1428 3281 1529 2782 
Q 1631 2284 1631 1759 
z
" transform="scale(0.015625)"/>
      </defs>
      <use xlink:href="#OpenSans-Regular-52"/>
      <use xlink:href="#OpenSans-Regular-61" x="61.71875"/>
      <use xlink:href="#OpenSans-Regular-79" x="117.285156"/>
      <use xlink:href="#OpenSans-Regular-20" x="167.382812"/>
      <use xlink:href="#OpenSans-Regular-64" x="193.359375"/>
      <use xlink:href="#OpenSans-Regular-69" x="254.541016"/>
      <use xlink:href="#OpenSans-Regular-73" x="279.785156"/>
      <use xlink:href="#OpenSans-Regular-74" x="327.441406"/>
      <use xlink:href="#OpenSans-Regular-61" x="363.085938"/>
      <use xlink:href="#OpenSans-Regular-6e" x="418.652344"/>
      <use xlink:href="#OpenSans-Regular-63" x="479.980469"/>
      <use xlink:href="#OpenSans-Regular-65" x="527.880859"/>
      <use xlink:href="#OpenSans-Regular-20" x="584.033203"/>
      <use xlink:href="#OpenSans-Regular-6f" x="610.009766"/>
      <use xlink:href="#OpenSans-Regular-66" x="670.166016"/>
      <use xlink:href="#OpenSans-Regular-66" x="703.808594"/>
      <use xlink:href="#OpenSans-Regular-73" x="737.451172"/>
      <use xlink:href="#OpenSans-Regular-65" x="785.107422"/>
      <use xlink:href="#OpenSans-Regular-74" x="841.259766"/>
      <use xlink:href="#OpenSans-Regular-20" x="876.904297"/>
      <use xlink:href="#OpenSans-Regular-66" x="902.880859"/>
      <use xlink:href="#OpenSans-Regular-72" x="936.523438"/>
      <use xlink:href="#OpenSans-Regular-6f" x="977.392578"/>
      <use xlink:href="#OpenSans-Regular-6d" x="1037.548828"/>
      <use xlink:href="#OpenSans-Regular-20" x="1130.126953"/>
      <use xlink:href="#OpenSans-Regular-70" x="1156.103516"/>
      <use xlink:href="#OpenSans-Regular-61" x="1217.285156"/>
      <use xlink:href="#OpenSans-Regular-74" x="1272.851562"/>
      <use xlink:href="#OpenSans-Regular-63" x="1308.496094"/>
      <use xlink:href="#OpenSans-Regular-68" x="1356.396484"/>
      <use xlink:href="#OpenSans-Regular-20" x="1417.724609"/>
      <use xlink:href="#OpenSans-Regular-63" x="1443.701172"/>
      <use xlink:href="#OpenSans-Regular-65" x="1491.601562"/>
      <use xlink:href="#OpenSans-Regular-6e" x="1547.753906"/>
      <use xlink:href="#OpenSans-Regular-74" x="1609.082031"/>
      <use xlink:href="#OpenSans-Regular-65" x="1644.726562"/>
      <use xlink:href="#OpenSans-Regular-72" x="1700.878906"/>
      <use xlink:href="#OpenSans-Regular-20" x="1741.748047"/>
      <use xlink:href="#OpenSans-Regular-28" x="1767.724609"/>
      <use xlink:href="#OpenSans-Regular-71" x="1797.216797"/>
      <use xlink:href="#OpenSans-Regular-75" x="1858.398438"/>
      <use xlink:href="#OpenSans-Regular-62" x="1919.726562"/>
      <use xlink:href="#OpenSans-Regular-69" x="1980.908203"/>
      <use xlink:href="#OpenSans-Regular-74" x="2006.152344"/>
      <use xlink:href="#OpenSans-Regular-20" x="2041.796875"/>
      <use xlink:href="#OpenSans-Regular-73" x="2067.773438"/>
      <use xlink:href="#OpenSans-Regular-70" x="2115.429688"/>
      <use xlink:href="#OpenSans-Regular-61" x="2176.611328"/>
      <use xlink:href="#OpenSans-Regular-63" x="2232.177734"/>
      <use xlink:href="#OpenSans-Regular-69" x="2280.078125"/>
      <use xlink:href="#OpenSans-Regular-6e" x="2305.322266"/>
      <use xlink:href="#OpenSans-Regular-67" x="2366.650391"/>
      <use xlink:href="#OpenSans-Regular-73" x="2420.947266"/>
      <use xlink:href="#OpenSans-Regular-29" x="2468.603516"/>
     </g>
    </g>
   </g>
   <g id="matplotlib.axis_2">
    <g id="ytick_1">
     <g id="line2d_9">
      <defs>
       <path id="m9e406d1463" d="M 0 0 
L -3.5 0 
" style="stroke: #000000; stroke-width: 0.8"/>
      </defs>
      <g>
       <use xlink:href="#m9e406d1463" x="54.081875" y="262.736309" style="stroke: #000000; stroke-width: 0.8"/>
      </g>
     </g>
     <g id="text_10">
      <!-- $\mathdefault{10^{-4}}$ -->
      <g transform="translate(23.201875 267.295371) scale(0.12 -0.12)">
       <defs>
        <path id="OpenSans-Regular-2212" d="M 322 2044 
L 322 2469 
L 3331 2469 
L 3331 2044 
L 322 2044 
z
" transform="scale(0.015625)"/>
        <path id="OpenSans-Regular-34" d="M 3538 1059 
L 2853 1059 
L 2853 0 
L 2347 0 
L 2347 1059 
L 138 1059 
L 138 1497 
L 2313 4594 
L 2853 4594 
L 2853 1528 
L 3538 1528 
L 3538 1059 
z
M 2347 1528 
L 2347 3022 
Q 2347 3194 2350 3333 
Q 2353 3472 2359 3592 
Q 2366 3713 2370 3822 
Q 2375 3931 2378 4038 
L 2353 4038 
Q 2294 3913 2217 3773 
Q 2141 3634 2063 3525 
L 653 1528 
L 2347 1528 
z
" transform="scale(0.015625)"/>
       </defs>
       <use xlink:href="#OpenSans-Regular-31" transform="translate(0 0.292188)"/>
       <use xlink:href="#OpenSans-Regular-30" transform="translate(57.177734 0.292188)"/>
       <use xlink:href="#OpenSans-Regular-2212" transform="translate(115.291992 37.753125) scale(0.7)"/>
       <use xlink:href="#OpenSans-Regular-34" transform="translate(155.316406 37.753125) scale(0.7)"/>
      </g>
     </g>
    </g>
    <g id="ytick_2">
     <g id="line2d_10">
      <g>
       <use xlink:href="#m9e406d1463" x="54.081875" y="171.071221" style="stroke: #000000; stroke-width: 0.8"/>
      </g>
     </g>
     <g id="text_11">
      <!-- $\mathdefault{10^{-3}}$ -->
      <g transform="translate(23.201875 175.630283) scale(0.12 -0.12)">
       <defs>
        <path id="OpenSans-Regular-33" d="M 3141 3503 
Q 3141 3197 3022 2972 
Q 2903 2747 2690 2605 
Q 2478 2463 2191 2406 
L 2191 2381 
Q 2734 2313 3007 2031 
Q 3281 1750 3281 1294 
Q 3281 897 3095 590 
Q 2909 284 2526 110 
Q 2144 -63 1547 -63 
Q 1184 -63 876 -5 
Q 569 53 288 188 
L 288 675 
Q 572 534 906 454 
Q 1241 375 1553 375 
Q 2178 375 2456 623 
Q 2734 872 2734 1303 
Q 2734 1600 2579 1783 
Q 2425 1966 2136 2052 
Q 1847 2138 1441 2138 
L 984 2138 
L 984 2581 
L 1444 2581 
Q 1816 2581 2075 2690 
Q 2334 2800 2470 2998 
Q 2606 3197 2606 3469 
Q 2606 3816 2375 4005 
Q 2144 4194 1747 4194 
Q 1503 4194 1303 4144 
Q 1103 4094 928 4006 
Q 753 3919 578 3803 
L 316 4159 
Q 566 4353 925 4493 
Q 1284 4634 1741 4634 
Q 2441 4634 2791 4315 
Q 3141 3997 3141 3503 
z
" transform="scale(0.015625)"/>
       </defs>
       <use xlink:href="#OpenSans-Regular-31" transform="translate(0 0.854688)"/>
       <use xlink:href="#OpenSans-Regular-30" transform="translate(57.177734 0.854688)"/>
       <use xlink:href="#OpenSans-Regular-2212" transform="translate(115.291992 38.315625) scale(0.7)"/>
       <use xlink:href="#OpenSans-Regular-33" transform="translate(155.316406 38.315625) scale(0.7)"/>
      </g>
     </g>
    </g>
    <g id="ytick_3">
     <g id="line2d_11">
      <g>
       <use xlink:href="#m9e406d1463" x="54.081875" y="79.406132" style="stroke: #000000; stroke-width: 0.8"/>
      </g>
     </g>
     <g id="text_12">
      <!-- $\mathdefault{10^{-2}}$ -->
      <g transform="translate(23.201875 83.965195) scale(0.12 -0.12)">
       <use xlink:href="#OpenSans-Regular-31" transform="translate(0 0.854688)"/>
       <use xlink:href="#OpenSans-Regular-30" transform="translate(57.177734 0.854688)"/>
       <use xlink:href="#OpenSans-Regular-2212" transform="translate(115.291992 38.315625) scale(0.7)"/>
       <use xlink:href="#OpenSans-Regular-32" transform="translate(155.316406 38.315625) scale(0.7)"/>
      </g>
     </g>
    </g>
    <g id="ytick_4">
     <g id="line2d_12">
      <defs>
       <path id="m7f5e0d9236" d="M 0 0 
L -2 0 
" style="stroke: #000000; stroke-width: 0.6"/>
      </defs>
      <g>
       <use xlink:href="#m7f5e0d9236" x="54.081875" y="290.33025" style="stroke: #000000; stroke-width: 0.6"/>
      </g>
     </g>
    </g>
    <g id="ytick_5">
     <g id="line2d_13">
      <g>
       <use xlink:href="#m7f5e0d9236" x="54.081875" y="283.072094" style="stroke: #000000; stroke-width: 0.6"/>
      </g>
     </g>
    </g>
    <g id="ytick_6">
     <g id="line2d_14">
      <g>
       <use xlink:href="#m7f5e0d9236" x="54.081875" y="276.935411" style="stroke: #000000; stroke-width: 0.6"/>
      </g>
     </g>
    </g>
    <g id="ytick_7">
     <g id="line2d_15">
      <g>
       <use xlink:href="#m7f5e0d9236" x="54.081875" y="271.619574" style="stroke: #000000; stroke-width: 0.6"/>
      </g>
     </g>
    </g>
    <g id="ytick_8">
     <g id="line2d_16">
      <g>
       <use xlink:href="#m7f5e0d9236" x="54.081875" y="266.930673" style="stroke: #000000; stroke-width: 0.6"/>
      </g>
     </g>
    </g>
    <g id="ytick_9">
     <g id="line2d_17">
      <g>
       <use xlink:href="#m7f5e0d9236" x="54.081875" y="235.142368" style="stroke: #000000; stroke-width: 0.6"/>
      </g>
     </g>
    </g>
    <g id="ytick_10">
     <g id="line2d_18">
      <g>
       <use xlink:href="#m7f5e0d9236" x="54.081875" y="219.000947" style="stroke: #000000; stroke-width: 0.6"/>
      </g>
     </g>
    </g>
    <g id="ytick_11">
     <g id="line2d_19">
      <g>
       <use xlink:href="#m7f5e0d9236" x="54.081875" y="207.548427" style="stroke: #000000; stroke-width: 0.6"/>
      </g>
     </g>
    </g>
    <g id="ytick_12">
     <g id="line2d_20">
      <g>
       <use xlink:href="#m7f5e0d9236" x="54.081875" y="198.665162" style="stroke: #000000; stroke-width: 0.6"/>
      </g>
     </g>
    </g>
    <g id="ytick_13">
     <g id="line2d_21">
      <g>
       <use xlink:href="#m7f5e0d9236" x="54.081875" y="191.407006" style="stroke: #000000; stroke-width: 0.6"/>
      </g>
     </g>
    </g>
    <g id="ytick_14">
     <g id="line2d_22">
      <g>
       <use xlink:href="#m7f5e0d9236" x="54.081875" y="185.270322" style="stroke: #000000; stroke-width: 0.6"/>
      </g>
     </g>
    </g>
    <g id="ytick_15">
     <g id="line2d_23">
      <g>
       <use xlink:href="#m7f5e0d9236" x="54.081875" y="179.954485" style="stroke: #000000; stroke-width: 0.6"/>
      </g>
     </g>
    </g>
    <g id="ytick_16">
     <g id="line2d_24">
      <g>
       <use xlink:href="#m7f5e0d9236" x="54.081875" y="175.265585" style="stroke: #000000; stroke-width: 0.6"/>
      </g>
     </g>
    </g>
    <g id="ytick_17">
     <g id="line2d_25">
      <g>
       <use xlink:href="#m7f5e0d9236" x="54.081875" y="143.477279" style="stroke: #000000; stroke-width: 0.6"/>
      </g>
     </g>
    </g>
    <g id="ytick_18">
     <g id="line2d_26">
      <g>
       <use xlink:href="#m7f5e0d9236" x="54.081875" y="127.335859" style="stroke: #000000; stroke-width: 0.6"/>
      </g>
     </g>
    </g>
    <g id="ytick_19">
     <g id="line2d_27">
      <g>
       <use xlink:href="#m7f5e0d9236" x="54.081875" y="115.883338" style="stroke: #000000; stroke-width: 0.6"/>
      </g>
     </g>
    </g>
    <g id="ytick_20">
     <g id="line2d_28">
      <g>
       <use xlink:href="#m7f5e0d9236" x="54.081875" y="107.000073" style="stroke: #000000; stroke-width: 0.6"/>
      </g>
     </g>
    </g>
    <g id="ytick_21">
     <g id="line2d_29">
      <g>
       <use xlink:href="#m7f5e0d9236" x="54.081875" y="99.741917" style="stroke: #000000; stroke-width: 0.6"/>
      </g>
     </g>
    </g>
    <g id="ytick_22">
     <g id="line2d_30">
      <g>
       <use xlink:href="#m7f5e0d9236" x="54.081875" y="93.605234" style="stroke: #000000; stroke-width: 0.6"/>
      </g>
     </g>
    </g>
    <g id="ytick_23">
     <g id="line2d_31">
      <g>
       <use xlink:href="#m7f5e0d9236" x="54.081875" y="88.289397" style="stroke: #000000; stroke-width: 0.6"/>
      </g>
     </g>
    </g>
    <g id="ytick_24">
     <g id="line2d_32">
      <g>
       <use xlink:href="#m7f5e0d9236" x="54.081875" y="83.600497" style="stroke: #000000; stroke-width: 0.6"/>
      </g>
     </g>
    </g>
    <g id="ytick_25">
     <g id="line2d_33">
      <g>
       <use xlink:href="#m7f5e0d9236" x="54.081875" y="51.812191" style="stroke: #000000; stroke-width: 0.6"/>
      </g>
     </g>
    </g>
    <g id="ytick_26">
     <g id="line2d_34">
      <g>
       <use xlink:href="#m7f5e0d9236" x="54.081875" y="35.67077" style="stroke: #000000; stroke-width: 0.6"/>
      </g>
     </g>
    </g>
    <g id="ytick_27">
     <g id="line2d_35">
      <g>
       <use xlink:href="#m7f5e0d9236" x="54.081875" y="24.21825" style="stroke: #000000; stroke-width: 0.6"/>
      </g>
     </g>
    </g>
    <g id="text_13">
     <!-- Logical error rate -->
     <g transform="translate(16.318125 205.260187) rotate(-90) scale(0.12 -0.12)">
      <defs>
       <path id="OpenSans-Regular-4c" d="M 625 0 
L 625 4569 
L 1156 4569 
L 1156 475 
L 3184 475 
L 3184 0 
L 625 0 
z
" transform="scale(0.015625)"/>
       <path id="OpenSans-Regular-6c" d="M 1069 0 
L 547 0 
L 547 4863 
L 1069 4863 
L 1069 0 
z
" transform="scale(0.015625)"/>
      </defs>
      <use xlink:href="#OpenSans-Regular-4c"/>
      <use xlink:href="#OpenSans-Regular-6f" x="52.197266"/>
      <use xlink:href="#OpenSans-Regular-67" x="112.353516"/>
      <use xlink:href="#OpenSans-Regular-69" x="166.650391"/>
      <use xlink:href="#OpenSans-Regular-63" x="191.894531"/>
      <use xlink:href="#OpenSans-Regular-61" x="239.794922"/>
      <use xlink:href="#OpenSans-Regular-6c" x="295.361328"/>
      <use xlink:href="#OpenSans-Regular-20" x="320.605469"/>
      <use xlink:href="#OpenSans-Regular-65" x="346.582031"/>
      <use xlink:href="#OpenSans-Regular-72" x="402.734375"/>
      <use xlink:href="#OpenSans-Regular-72" x="443.603516"/>
      <use xlink:href="#OpenSans-Regular-6f" x="484.472656"/>
      <use xlink:href="#OpenSans-Regular-72" x="544.628906"/>
      <use xlink:href="#OpenSans-Regular-20" x="585.498047"/>
      <use xlink:href="#OpenSans-Regular-72" x="611.474609"/>
      <use xlink:href="#OpenSans-Regular-61" x="652.34375"/>
      <use xlink:href="#OpenSans-Regular-74" x="707.910156"/>
      <use xlink:href="#OpenSans-Regular-65" x="743.554688"/>
     </g>
    </g>
   </g>
   <g id="line2d_36">
    <path d="M 70.314602 47.790037 
L 87.401684 47.617687 
L 104.488765 46.996456 
L 121.575846 47.468562 
L 138.662928 49.222663 
L 155.750009 53.880568 
L 172.83709 60.875004 
L 189.924172 71.923355 
L 207.011253 87.479114 
L 224.098334 112.2559 
L 241.185416 146.600272 
L 258.272497 186.144284 
L 275.359578 231.113557 
L 292.44666 257.380682 
L 309.533741 268.052146 
L 326.620822 268.786831 
L 343.707904 269.159322 
L 360.794985 266.185727 
L 377.882066 267.465039 
L 394.969148 267.19696 
" clip-path="url(#p5f2acf3221)" style="fill: none; stroke: #0072b2; stroke-width: 1.5; stroke-linecap: square"/>
    <defs>
     <path id="m1913e8be1a" d="M 0 3 
C 0.795609 3 1.55874 2.683901 2.12132 2.12132 
C 2.683901 1.55874 3 0.795609 3 0 
C 3 -0.795609 2.683901 -1.55874 2.12132 -2.12132 
C 1.55874 -2.683901 0.795609 -3 0 -3 
C -0.795609 -3 -1.55874 -2.683901 -2.12132 -2.12132 
C -2.683901 -1.55874 -3 -0.795609 -3 0 
C -3 0.795609 -2.683901 1.55874 -2.12132 2.12132 
C -1.55874 2.683901 -0.795609 3 0 3 
z
" style="stroke: #0072b2"/>
    </defs>
    <g clip-path="url(#p5f2acf3221)">
     <use xlink:href="#m1913e8be1a" x="70.314602" y="47.790037" style="fill: #0072b2; stroke: #0072b2"/>
     <use xlink:href="#m1913e8be1a" x="87.401684" y="47.617687" style="fill: #0072b2; stroke: #0072b2"/>
     <use xlink:href="#m1913e8be1a" x="104.488765" y="46.996456" style="fill: #0072b2; stroke: #0072b2"/>
     <use xlink:href="#m1913e8be1a" x="121.575846" y="47.468562" style="fill: #0072b2; stroke: #0072b2"/>
     <use xlink:href="#m1913e8be1a" x="138.662928" y="49.222663" style="fill: #0072b2; stroke: #0072b2"/>
     <use xlink:href="#m1913e8be1a" x="155.750009" y="53.880568" style="fill: #0072b2; stroke: #0072b2"/>
     <use xlink:href="#m1913e8be1a" x="172.83709" y="60.875004" style="fill: #0072b2; stroke: #0072b2"/>
     <use xlink:href="#m1913e8be1a" x="189.924172" y="71.923355" style="fill: #0072b2; stroke: #0072b2"/>
     <use xlink:href="#m1913e8be1a" x="207.011253" y="87.479114" style="fill: #0072b2; stroke: #0072b2"/>
     <use xlink:href="#m1913e8be1a" x="224.098334" y="112.2559" style="fill: #0072b2; stroke: #0072b2"/>
     <use xlink:href="#m1913e8be1a" x="241.185416" y="146.600272" style="fill: #0072b2; stroke: #0072b2"/>
     <use xlink:href="#m1913e8be1a" x="258.272497" y="186.144284" style="fill: #0072b2; stroke: #0072b2"/>
     <use xlink:href="#m1913e8be1a" x="275.359578" y="231.113557" style="fill: #0072b2; stroke: #0072b2"/>
     <use xlink:href="#m1913e8be1a" x="292.44666" y="257.380682" style="fill: #0072b2; stroke: #0072b2"/>
     <use xlink:href="#m1913e8be1a" x="309.533741" y="268.052146" style="fill: #0072b2; stroke: #0072b2"/>
     <use xlink:href="#m1913e8be1a" x="326.620822" y="268.786831" style="fill: #0072b2; stroke: #0072b2"/>
     <use xlink:href="#m1913e8be1a" x="343.707904" y="269.159322" style="fill: #0072b2; stroke: #0072b2"/>
     <use xlink:href="#m1913e8be1a" x="360.794985" y="266.185727" style="fill: #0072b2; stroke: #0072b2"/>
     <use xlink:href="#m1913e8be1a" x="377.882066" y="267.465039" style="fill: #0072b2; stroke: #0072b2"/>
     <use xlink:href="#m1913e8be1a" x="394.969148" y="267.19696" style="fill: #0072b2; stroke: #0072b2"/>
    </g>
   </g>
   <g id="line2d_37">
    <path d="M 70.314602 265.369311 
L 87.401684 265.369311 
L 104.488765 265.369311 
L 121.575846 265.369311 
L 138.662928 265.369311 
L 155.750009 265.369311 
L 172.83709 265.369311 
L 189.924172 265.369311 
L 207.011253 265.369311 
L 224.098334 265.369311 
L 241.185416 265.369311 
L 258.272497 265.369311 
L 275.359578 265.369311 
L 292.44666 265.369311 
L 309.533741 265.369311 
L 326.620822 265.369311 
L 343.707904 265.369311 
L 360.794985 265.369311 
L 377.882066 265.369311 
L 394.969148 265.369311 
" clip-path="url(#p5f2acf3221)" style="fill: none; stroke-dasharray: 5.55,2.4; stroke-dashoffset: 0; stroke: #009e73; stroke-width: 1.5"/>
   </g>
   <g id="patch_3">
    <path d="M 54.081875 290.33025 
L 54.081875 24.21825 
" style="fill: none; stroke: #000000; stroke-width: 0.8; stroke-linejoin: miter; stroke-linecap: square"/>
   </g>
   <g id="patch_4">
    <path d="M 411.201875 290.33025 
L 411.201875 24.21825 
" style="fill: none; stroke: #000000; stroke-width: 0.8; stroke-linejoin: miter; stroke-linecap: square"/>
   </g>
   <g id="patch_5">
    <path d="M 54.081875 290.33025 
L 411.201875 290.33025 
" style="fill: none; stroke: #000000; stroke-width: 0.8; stroke-linejoin: miter; stroke-linecap: square"/>
   </g>
   <g id="patch_6">
    <path d="M 54.081875 24.21825 
L 411.201875 24.21825 
" style="fill: none; stroke: #000000; stroke-width: 0.8; stroke-linejoin: miter; stroke-linecap: square"/>
   </g>
   <g id="legend_1">
    <g id="patch_7">
     <path d="M 72.481235 244.41345 
L 215.412485 244.41345 
Q 217.812485 244.41345 217.812485 242.01345 
L 217.812485 189.234075 
Q 217.812485 186.834075 215.412485 186.834075 
L 72.481235 186.834075 
Q 70.081235 186.834075 70.081235 189.234075 
L 70.081235 242.01345 
Q 70.081235 244.41345 72.481235 244.41345 
z
" style="fill: #ffffff; opacity: 0.8; stroke: #cccccc; stroke-linejoin: miter"/>
    </g>
    <g id="line2d_38">
     <path d="M 74.881235 196.5522 
L 86.881235 196.5522 
L 98.881235 196.5522 
" style="fill: none; stroke: #0072b2; stroke-width: 1.5; stroke-linecap: square"/>
     <g>
      <use xlink:href="#m1913e8be1a" x="86.881235" y="196.5522" style="fill: #0072b2; stroke: #0072b2"/>
     </g>
    </g>
    <g id="text_14">
     <!-- Logical error rate -->
     <g transform="translate(108.481235 200.7522) scale(0.12 -0.12)">
      <use xlink:href="#OpenSans-Regular-4c"/>
      <use xlink:href="#OpenSans-Regular-6f" x="52.197266"/>
      <use xlink:href="#OpenSans-Regular-67" x="112.353516"/>
      <use xlink:href="#OpenSans-Regular-69" x="166.650391"/>
      <use xlink:href="#OpenSans-Regular-63" x="191.894531"/>
      <use xlink:href="#OpenSans-Regular-61" x="239.794922"/>
      <use xlink:href="#OpenSans-Regular-6c" x="295.361328"/>
      <use xlink:href="#OpenSans-Regular-20" x="320.605469"/>
      <use xlink:href="#OpenSans-Regular-65" x="346.582031"/>
      <use xlink:href="#OpenSans-Regular-72" x="402.734375"/>
      <use xlink:href="#OpenSans-Regular-72" x="443.603516"/>
      <use xlink:href="#OpenSans-Regular-6f" x="484.472656"/>
      <use xlink:href="#OpenSans-Regular-72" x="544.628906"/>
      <use xlink:href="#OpenSans-Regular-20" x="585.498047"/>
      <use xlink:href="#OpenSans-Regular-72" x="611.474609"/>
      <use xlink:href="#OpenSans-Regular-61" x="652.34375"/>
      <use xlink:href="#OpenSans-Regular-74" x="707.910156"/>
      <use xlink:href="#OpenSans-Regular-65" x="743.554688"/>
     </g>
    </g>
    <g id="line2d_39">
     <path d="M 74.881235 214.554075 
L 86.881235 214.554075 
L 98.881235 214.554075 
" style="fill: none; stroke-dasharray: 5.55,2.4; stroke-dashoffset: 0; stroke: #009e73; stroke-width: 1.5"/>
    </g>
    <g id="text_15">
     <!-- Baseline error rate -->
     <g transform="translate(108.481235 218.754075) scale(0.12 -0.12)">
      <defs>
       <path id="OpenSans-Regular-42" d="M 625 4569 
L 1919 4569 
Q 2775 4569 3206 4312 
Q 3638 4056 3638 3441 
Q 3638 3175 3536 2964 
Q 3434 2753 3240 2615 
Q 3047 2478 2763 2425 
L 2763 2394 
Q 3063 2347 3294 2222 
Q 3525 2097 3656 1872 
Q 3788 1647 3788 1300 
Q 3788 878 3592 587 
Q 3397 297 3040 148 
Q 2684 0 2197 0 
L 625 0 
L 625 4569 
z
M 1156 2609 
L 2031 2609 
Q 2628 2609 2858 2806 
Q 3088 3003 3088 3381 
Q 3088 3772 2814 3944 
Q 2541 4116 1944 4116 
L 1156 4116 
L 1156 2609 
z
M 1156 2163 
L 1156 453 
L 2106 453 
Q 2716 453 2969 692 
Q 3222 931 3222 1338 
Q 3222 1597 3108 1781 
Q 2994 1966 2739 2064 
Q 2484 2163 2059 2163 
L 1156 2163 
z
" transform="scale(0.015625)"/>
      </defs>
      <use xlink:href="#OpenSans-Regular-42"/>
      <use xlink:href="#OpenSans-Regular-61" x="64.599609"/>
      <use xlink:href="#OpenSans-Regular-73" x="120.166016"/>
      <use xlink:href="#OpenSans-Regular-65" x="167.822266"/>
      <use xlink:href="#OpenSans-Regular-6c" x="223.974609"/>
      <use xlink:href="#OpenSans-Regular-69" x="249.21875"/>
      <use xlink:href="#OpenSans-Regular-6e" x="274.462891"/>
      <use xlink:href="#OpenSans-Regular-65" x="335.791016"/>
      <use xlink:href="#OpenSans-Regular-20" x="391.943359"/>
      <use xlink:href="#OpenSans-Regular-65" x="417.919922"/>
      <use xlink:href="#OpenSans-Regular-72" x="474.072266"/>
      <use xlink:href="#OpenSans-Regular-72" x="514.941406"/>
      <use xlink:href="#OpenSans-Regular-6f" x="555.810547"/>
      <use xlink:href="#OpenSans-Regular-72" x="615.966797"/>
      <use xlink:href="#OpenSans-Regular-20" x="656.835938"/>
      <use xlink:href="#OpenSans-Regular-72" x="682.8125"/>
      <use xlink:href="#OpenSans-Regular-61" x="723.681641"/>
      <use xlink:href="#OpenSans-Regular-74" x="779.248047"/>
      <use xlink:href="#OpenSans-Regular-65" x="814.892578"/>
     </g>
    </g>
    <g id="patch_8">
     <path d="M 74.881235 236.742825 
L 98.881235 236.742825 
L 98.881235 228.342825 
L 74.881235 228.342825 
z
" style="fill: #009e73; fill-opacity: 0.2; stroke: #009e73; stroke-opacity: 0.2; stroke-linejoin: miter"/>
    </g>
    <g id="text_16">
     <!-- factor=1000 CI -->
     <g transform="translate(108.481235 236.742825) scale(0.12 -0.12)">
      <defs>
       <path id="OpenSans-Regular-3d" d="M 359 2681 
L 359 3103 
L 3291 3103 
L 3291 2681 
L 359 2681 
z
M 359 1403 
L 359 1825 
L 3291 1825 
L 3291 1403 
L 359 1403 
z
" transform="scale(0.015625)"/>
       <path id="OpenSans-Regular-43" d="M 2578 4166 
Q 2200 4166 1898 4036 
Q 1597 3906 1386 3661 
Q 1175 3416 1062 3069 
Q 950 2722 950 2288 
Q 950 1713 1129 1289 
Q 1309 866 1667 634 
Q 2025 403 2563 403 
Q 2869 403 3139 454 
Q 3409 506 3666 584 
L 3666 122 
Q 3416 28 3141 -17 
Q 2866 -63 2488 -63 
Q 1791 -63 1323 226 
Q 856 516 623 1044 
Q 391 1572 391 2291 
Q 391 2809 536 3239 
Q 681 3669 961 3981 
Q 1241 4294 1648 4464 
Q 2056 4634 2584 4634 
Q 2931 4634 3253 4565 
Q 3575 4497 3834 4369 
L 3622 3919 
Q 3403 4019 3142 4092 
Q 2881 4166 2578 4166 
z
" transform="scale(0.015625)"/>
       <path id="OpenSans-Regular-49" d="M 625 0 
L 625 4569 
L 1156 4569 
L 1156 0 
L 625 0 
z
" transform="scale(0.015625)"/>
      </defs>
      <use xlink:href="#OpenSans-Regular-66"/>
      <use xlink:href="#OpenSans-Regular-61" x="33.642578"/>
      <use xlink:href="#OpenSans-Regular-63" x="89.208984"/>
      <use xlink:href="#OpenSans-Regular-74" x="137.109375"/>
      <use xlink:href="#OpenSans-Regular-6f" x="172.753906"/>
      <use xlink:href="#OpenSans-Regular-72" x="232.910156"/>
      <use xlink:href="#OpenSans-Regular-3d" x="273.779297"/>
      <use xlink:href="#OpenSans-Regular-31" x="330.957031"/>
      <use xlink:href="#OpenSans-Regular-30" x="388.134766"/>
      <use xlink:href="#OpenSans-Regular-30" x="445.3125"/>
      <use xlink:href="#OpenSans-Regular-30" x="502.490234"/>
      <use xlink:href="#OpenSans-Regular-20" x="559.667969"/>
      <use xlink:href="#OpenSans-Regular-43" x="585.644531"/>
      <use xlink:href="#OpenSans-Regular-49" x="648.632812"/>
     </g>
    </g>
   </g>
  </g>
  <g id="axes_2">
   <g id="matplotlib.axis_3">
    <g id="ytick_28">
     <g id="line2d_40">
      <defs>
       <path id="m9200d74f9d" d="M 0 0 
L 3.5 0 
" style="stroke: #000000; stroke-width: 0.8"/>
      </defs>
      <g>
       <use xlink:href="#m9200d74f9d" x="411.201875" y="278.23425" style="stroke: #000000; stroke-width: 0.8"/>
      </g>
     </g>
     <g id="text_17">
      <!-- 0.0 -->
      <g transform="translate(418.201875 282.793313) scale(0.12 -0.12)">
       <use xlink:href="#OpenSans-Regular-30"/>
       <use xlink:href="#OpenSans-Regular-2e" x="57.177734"/>
       <use xlink:href="#OpenSans-Regular-30" x="83.447266"/>
      </g>
     </g>
    </g>
    <g id="ytick_29">
     <g id="line2d_41">
      <g>
       <use xlink:href="#m9200d74f9d" x="411.201875" y="229.85025" style="stroke: #000000; stroke-width: 0.8"/>
      </g>
     </g>
     <g id="text_18">
      <!-- 0.2 -->
      <g transform="translate(418.201875 234.409313) scale(0.12 -0.12)">
       <use xlink:href="#OpenSans-Regular-30"/>
       <use xlink:href="#OpenSans-Regular-2e" x="57.177734"/>
       <use xlink:href="#OpenSans-Regular-32" x="83.447266"/>
      </g>
     </g>
    </g>
    <g id="ytick_30">
     <g id="line2d_42">
      <g>
       <use xlink:href="#m9200d74f9d" x="411.201875" y="181.46625" style="stroke: #000000; stroke-width: 0.8"/>
      </g>
     </g>
     <g id="text_19">
      <!-- 0.4 -->
      <g transform="translate(418.201875 186.025313) scale(0.12 -0.12)">
       <use xlink:href="#OpenSans-Regular-30"/>
       <use xlink:href="#OpenSans-Regular-2e" x="57.177734"/>
       <use xlink:href="#OpenSans-Regular-34" x="83.447266"/>
      </g>
     </g>
    </g>
    <g id="ytick_31">
     <g id="line2d_43">
      <g>
       <use xlink:href="#m9200d74f9d" x="411.201875" y="133.08225" style="stroke: #000000; stroke-width: 0.8"/>
      </g>
     </g>
     <g id="text_20">
      <!-- 0.6 -->
      <g transform="translate(418.201875 137.641313) scale(0.12 -0.12)">
       <defs>
        <path id="OpenSans-Regular-36" d="M 363 1953 
Q 363 2366 420 2759 
Q 478 3153 615 3492 
Q 753 3831 990 4087 
Q 1228 4344 1583 4489 
Q 1938 4634 2434 4634 
Q 2575 4634 2737 4620 
Q 2900 4606 3006 4575 
L 3006 4128 
Q 2891 4169 2742 4187 
Q 2594 4206 2444 4206 
Q 1863 4206 1530 3953 
Q 1197 3700 1050 3267 
Q 903 2834 881 2294 
L 916 2294 
Q 1013 2450 1163 2576 
Q 1313 2703 1527 2778 
Q 1741 2853 2025 2853 
Q 2425 2853 2723 2690 
Q 3022 2528 3186 2218 
Q 3350 1909 3350 1469 
Q 3350 997 3175 653 
Q 3000 309 2676 123 
Q 2353 -63 1906 -63 
Q 1572 -63 1290 65 
Q 1009 194 801 447 
Q 594 700 478 1076 
Q 363 1453 363 1953 
z
M 1900 375 
Q 2325 375 2581 647 
Q 2838 919 2838 1469 
Q 2838 1919 2609 2181 
Q 2381 2444 1922 2444 
Q 1609 2444 1378 2314 
Q 1147 2184 1019 1987 
Q 891 1791 891 1588 
Q 891 1381 952 1168 
Q 1013 956 1138 775 
Q 1263 594 1453 484 
Q 1644 375 1900 375 
z
" transform="scale(0.015625)"/>
       </defs>
       <use xlink:href="#OpenSans-Regular-30"/>
       <use xlink:href="#OpenSans-Regular-2e" x="57.177734"/>
       <use xlink:href="#OpenSans-Regular-36" x="83.447266"/>
      </g>
     </g>
    </g>
    <g id="ytick_32">
     <g id="line2d_44">
      <g>
       <use xlink:href="#m9200d74f9d" x="411.201875" y="84.69825" style="stroke: #000000; stroke-width: 0.8"/>
      </g>
     </g>
     <g id="text_21">
      <!-- 0.8 -->
      <g transform="translate(418.201875 89.257313) scale(0.12 -0.12)">
       <defs>
        <path id="OpenSans-Regular-38" d="M 1825 4634 
Q 2222 4634 2528 4509 
Q 2834 4384 3007 4142 
Q 3181 3900 3181 3547 
Q 3181 3269 3061 3061 
Q 2941 2853 2737 2698 
Q 2534 2544 2288 2422 
Q 2581 2288 2817 2119 
Q 3053 1950 3190 1722 
Q 3328 1494 3328 1181 
Q 3328 797 3142 517 
Q 2956 238 2622 87 
Q 2288 -63 1838 -63 
Q 1353 -63 1014 82 
Q 675 228 498 501 
Q 322 775 322 1159 
Q 322 1475 456 1708 
Q 591 1941 812 2109 
Q 1034 2278 1297 2394 
Q 1069 2519 880 2678 
Q 691 2838 580 3052 
Q 469 3266 469 3550 
Q 469 3897 645 4139 
Q 822 4381 1130 4507 
Q 1438 4634 1825 4634 
z
M 831 1156 
Q 831 806 1078 579 
Q 1325 353 1825 353 
Q 2300 353 2559 579 
Q 2819 806 2819 1175 
Q 2819 1403 2700 1576 
Q 2581 1750 2362 1887 
Q 2144 2025 1847 2138 
L 1734 2178 
Q 1447 2059 1245 1914 
Q 1044 1769 937 1584 
Q 831 1400 831 1156 
z
M 1819 4209 
Q 1450 4209 1215 4032 
Q 981 3856 981 3525 
Q 981 3288 1095 3123 
Q 1209 2959 1406 2842 
Q 1603 2725 1847 2625 
Q 2084 2725 2268 2845 
Q 2453 2966 2559 3131 
Q 2666 3297 2666 3528 
Q 2666 3859 2433 4034 
Q 2200 4209 1819 4209 
z
" transform="scale(0.015625)"/>
       </defs>
       <use xlink:href="#OpenSans-Regular-30"/>
       <use xlink:href="#OpenSans-Regular-2e" x="57.177734"/>
       <use xlink:href="#OpenSans-Regular-38" x="83.447266"/>
      </g>
     </g>
    </g>
    <g id="ytick_33">
     <g id="line2d_45">
      <g>
       <use xlink:href="#m9200d74f9d" x="411.201875" y="36.31425" style="stroke: #000000; stroke-width: 0.8"/>
      </g>
     </g>
     <g id="text_22">
      <!-- 1.0 -->
      <g transform="translate(418.201875 40.873312) scale(0.12 -0.12)">
       <use xlink:href="#OpenSans-Regular-31"/>
       <use xlink:href="#OpenSans-Regular-2e" x="57.177734"/>
       <use xlink:href="#OpenSans-Regular-30" x="83.447266"/>
      </g>
     </g>
    </g>
    <g id="text_23">
     <!-- Patch signal chance within one distillation -->
     <g transform="translate(448.193125 273.517687) rotate(-90) scale(0.12 -0.12)">
      <defs>
       <path id="OpenSans-Regular-50" d="M 1819 4569 
Q 2703 4569 3111 4223 
Q 3519 3878 3519 3234 
Q 3519 2944 3423 2683 
Q 3328 2422 3115 2223 
Q 2903 2025 2558 1911 
Q 2213 1797 1713 1797 
L 1156 1797 
L 1156 0 
L 625 0 
L 625 4569 
L 1819 4569 
z
M 1769 4116 
L 1156 4116 
L 1156 2253 
L 1653 2253 
Q 2091 2253 2383 2347 
Q 2675 2441 2822 2652 
Q 2969 2863 2969 3213 
Q 2969 3669 2678 3892 
Q 2388 4116 1769 4116 
z
" transform="scale(0.015625)"/>
       <path id="OpenSans-Regular-77" d="M 3334 6 
L 2725 2000 
Q 2684 2128 2648 2251 
Q 2613 2375 2583 2489 
Q 2553 2603 2529 2701 
Q 2506 2800 2491 2872 
L 2469 2872 
Q 2456 2800 2434 2701 
Q 2413 2603 2383 2487 
Q 2353 2372 2318 2245 
Q 2284 2119 2241 1991 
L 1603 6 
L 1019 6 
L 75 3431 
L 613 3431 
L 1106 1541 
Q 1156 1353 1201 1170 
Q 1247 988 1280 827 
Q 1313 666 1328 547 
L 1353 547 
Q 1372 625 1395 734 
Q 1419 844 1448 967 
Q 1478 1091 1512 1214 
Q 1547 1338 1581 1447 
L 2213 3431 
L 2772 3431 
L 3381 1450 
Q 3428 1300 3473 1137 
Q 3519 975 3556 823 
Q 3594 672 3609 553 
L 3634 553 
Q 3647 659 3681 815 
Q 3716 972 3761 1159 
Q 3806 1347 3856 1541 
L 4356 3431 
L 4884 3431 
L 3938 6 
L 3334 6 
z
" transform="scale(0.015625)"/>
      </defs>
      <use xlink:href="#OpenSans-Regular-50"/>
      <use xlink:href="#OpenSans-Regular-61" x="60.15625"/>
      <use xlink:href="#OpenSans-Regular-74" x="115.722656"/>
      <use xlink:href="#OpenSans-Regular-63" x="151.367188"/>
      <use xlink:href="#OpenSans-Regular-68" x="199.267578"/>
      <use xlink:href="#OpenSans-Regular-20" x="260.595703"/>
      <use xlink:href="#OpenSans-Regular-73" x="286.572266"/>
      <use xlink:href="#OpenSans-Regular-69" x="334.228516"/>
      <use xlink:href="#OpenSans-Regular-67" x="359.472656"/>
      <use xlink:href="#OpenSans-Regular-6e" x="413.769531"/>
      <use xlink:href="#OpenSans-Regular-61" x="475.097656"/>
      <use xlink:href="#OpenSans-Regular-6c" x="530.664062"/>
      <use xlink:href="#OpenSans-Regular-20" x="555.908203"/>
      <use xlink:href="#OpenSans-Regular-63" x="581.884766"/>
      <use xlink:href="#OpenSans-Regular-68" x="629.785156"/>
      <use xlink:href="#OpenSans-Regular-61" x="691.113281"/>
      <use xlink:href="#OpenSans-Regular-6e" x="746.679688"/>
      <use xlink:href="#OpenSans-Regular-63" x="808.007812"/>
      <use xlink:href="#OpenSans-Regular-65" x="855.908203"/>
      <use xlink:href="#OpenSans-Regular-20" x="912.060547"/>
      <use xlink:href="#OpenSans-Regular-77" x="938.037109"/>
      <use xlink:href="#OpenSans-Regular-69" x="1015.527344"/>
      <use xlink:href="#OpenSans-Regular-74" x="1040.771484"/>
      <use xlink:href="#OpenSans-Regular-68" x="1076.416016"/>
      <use xlink:href="#OpenSans-Regular-69" x="1137.744141"/>
      <use xlink:href="#OpenSans-Regular-6e" x="1162.988281"/>
      <use xlink:href="#OpenSans-Regular-20" x="1224.316406"/>
      <use xlink:href="#OpenSans-Regular-6f" x="1250.292969"/>
      <use xlink:href="#OpenSans-Regular-6e" x="1310.449219"/>
      <use xlink:href="#OpenSans-Regular-65" x="1371.777344"/>
      <use xlink:href="#OpenSans-Regular-20" x="1427.929688"/>
      <use xlink:href="#OpenSans-Regular-64" x="1453.90625"/>
      <use xlink:href="#OpenSans-Regular-69" x="1515.087891"/>
      <use xlink:href="#OpenSans-Regular-73" x="1540.332031"/>
      <use xlink:href="#OpenSans-Regular-74" x="1587.988281"/>
      <use xlink:href="#OpenSans-Regular-69" x="1623.632812"/>
      <use xlink:href="#OpenSans-Regular-6c" x="1648.876953"/>
      <use xlink:href="#OpenSans-Regular-6c" x="1674.121094"/>
      <use xlink:href="#OpenSans-Regular-61" x="1699.365234"/>
      <use xlink:href="#OpenSans-Regular-74" x="1754.931641"/>
      <use xlink:href="#OpenSans-Regular-69" x="1790.576172"/>
      <use xlink:href="#OpenSans-Regular-6f" x="1815.820312"/>
      <use xlink:href="#OpenSans-Regular-6e" x="1875.976562"/>
     </g>
    </g>
   </g>
   <g id="line2d_46">
    <path d="M 70.314602 36.31425 
L 87.401684 36.31425 
L 104.488765 36.31425 
L 121.575846 36.31425 
L 138.662928 36.31425 
L 155.750009 36.31425 
L 172.83709 36.31425 
L 189.924172 36.31425 
L 207.011253 36.31425 
L 224.098334 36.31425 
L 241.185416 36.31425 
L 258.272497 36.31425 
L 275.359578 36.31425 
L 292.44666 36.31425 
L 309.533741 67.519961 
L 326.620822 223.664422 
L 343.707904 278.206611 
L 360.794985 278.234123 
L 377.882066 278.23425 
L 394.969148 278.23425 
" clip-path="url(#p5f2acf3221)" style="fill: none; stroke: #cc79a7; stroke-width: 1.5; stroke-linecap: square"/>
    <defs>
     <path id="m0eb70fd85a" d="M 0 -3 
L -3 3 
L 3 3 
z
" style="stroke: #cc79a7; stroke-linejoin: miter"/>
    </defs>
    <g clip-path="url(#p5f2acf3221)">
     <use xlink:href="#m0eb70fd85a" x="70.314602" y="36.31425" style="fill: #cc79a7; stroke: #cc79a7; stroke-linejoin: miter"/>
     <use xlink:href="#m0eb70fd85a" x="87.401684" y="36.31425" style="fill: #cc79a7; stroke: #cc79a7; stroke-linejoin: miter"/>
     <use xlink:href="#m0eb70fd85a" x="104.488765" y="36.31425" style="fill: #cc79a7; stroke: #cc79a7; stroke-linejoin: miter"/>
     <use xlink:href="#m0eb70fd85a" x="121.575846" y="36.31425" style="fill: #cc79a7; stroke: #cc79a7; stroke-linejoin: miter"/>
     <use xlink:href="#m0eb70fd85a" x="138.662928" y="36.31425" style="fill: #cc79a7; stroke: #cc79a7; stroke-linejoin: miter"/>
     <use xlink:href="#m0eb70fd85a" x="155.750009" y="36.31425" style="fill: #cc79a7; stroke: #cc79a7; stroke-linejoin: miter"/>
     <use xlink:href="#m0eb70fd85a" x="172.83709" y="36.31425" style="fill: #cc79a7; stroke: #cc79a7; stroke-linejoin: miter"/>
     <use xlink:href="#m0eb70fd85a" x="189.924172" y="36.31425" style="fill: #cc79a7; stroke: #cc79a7; stroke-linejoin: miter"/>
     <use xlink:href="#m0eb70fd85a" x="207.011253" y="36.31425" style="fill: #cc79a7; stroke: #cc79a7; stroke-linejoin: miter"/>
     <use xlink:href="#m0eb70fd85a" x="224.098334" y="36.31425" style="fill: #cc79a7; stroke: #cc79a7; stroke-linejoin: miter"/>
     <use xlink:href="#m0eb70fd85a" x="241.185416" y="36.31425" style="fill: #cc79a7; stroke: #cc79a7; stroke-linejoin: miter"/>
     <use xlink:href="#m0eb70fd85a" x="258.272497" y="36.31425" style="fill: #cc79a7; stroke: #cc79a7; stroke-linejoin: miter"/>
     <use xlink:href="#m0eb70fd85a" x="275.359578" y="36.31425" style="fill: #cc79a7; stroke: #cc79a7; stroke-linejoin: miter"/>
     <use xlink:href="#m0eb70fd85a" x="292.44666" y="36.31425" style="fill: #cc79a7; stroke: #cc79a7; stroke-linejoin: miter"/>
     <use xlink:href="#m0eb70fd85a" x="309.533741" y="67.519961" style="fill: #cc79a7; stroke: #cc79a7; stroke-linejoin: miter"/>
     <use xlink:href="#m0eb70fd85a" x="326.620822" y="223.664422" style="fill: #cc79a7; stroke: #cc79a7; stroke-linejoin: miter"/>
     <use xlink:href="#m0eb70fd85a" x="343.707904" y="278.206611" style="fill: #cc79a7; stroke: #cc79a7; stroke-linejoin: miter"/>
     <use xlink:href="#m0eb70fd85a" x="360.794985" y="278.234123" style="fill: #cc79a7; stroke: #cc79a7; stroke-linejoin: miter"/>
     <use xlink:href="#m0eb70fd85a" x="377.882066" y="278.23425" style="fill: #cc79a7; stroke: #cc79a7; stroke-linejoin: miter"/>
     <use xlink:href="#m0eb70fd85a" x="394.969148" y="278.23425" style="fill: #cc79a7; stroke: #cc79a7; stroke-linejoin: miter"/>
    </g>
   </g>
   <g id="patch_9">
    <path d="M 54.081875 290.33025 
L 54.081875 24.21825 
" style="fill: none; stroke: #000000; stroke-width: 0.8; stroke-linejoin: miter; stroke-linecap: square"/>
   </g>
   <g id="patch_10">
    <path d="M 411.201875 290.33025 
L 411.201875 24.21825 
" style="fill: none; stroke: #000000; stroke-width: 0.8; stroke-linejoin: miter; stroke-linecap: square"/>
   </g>
   <g id="patch_11">
    <path d="M 54.081875 290.33025 
L 411.201875 290.33025 
" style="fill: none; stroke: #000000; stroke-width: 0.8; stroke-linejoin: miter; stroke-linecap: square"/>
   </g>
   <g id="patch_12">
    <path d="M 54.081875 24.21825 
L 411.201875 24.21825 
" style="fill: none; stroke: #000000; stroke-width: 0.8; stroke-linejoin: miter; stroke-linecap: square"/>
   </g>
   <g id="text_24">
    <!-- Detecting a cosmic rays in a surface code patch -->
    <g transform="translate(74.507375 18.21825) scale(0.144 -0.144)">
     <defs>
      <path id="OpenSans-Regular-44" d="M 4253 2328 
Q 4253 1556 3972 1039 
Q 3691 522 3158 261 
Q 2625 0 1866 0 
L 625 0 
L 625 4569 
L 2003 4569 
Q 2700 4569 3203 4314 
Q 3706 4059 3979 3561 
Q 4253 3063 4253 2328 
z
M 3694 2309 
Q 3694 2925 3489 3325 
Q 3284 3725 2889 3920 
Q 2494 4116 1922 4116 
L 1156 4116 
L 1156 456 
L 1803 456 
Q 2747 456 3220 922 
Q 3694 1388 3694 2309 
z
" transform="scale(0.015625)"/>
     </defs>
     <use xlink:href="#OpenSans-Regular-44"/>
     <use xlink:href="#OpenSans-Regular-65" x="72.558594"/>
     <use xlink:href="#OpenSans-Regular-74" x="128.710938"/>
     <use xlink:href="#OpenSans-Regular-65" x="164.355469"/>
     <use xlink:href="#OpenSans-Regular-63" x="220.507812"/>
     <use xlink:href="#OpenSans-Regular-74" x="268.408203"/>
     <use xlink:href="#OpenSans-Regular-69" x="304.052734"/>
     <use xlink:href="#OpenSans-Regular-6e" x="329.296875"/>
     <use xlink:href="#OpenSans-Regular-67" x="390.625"/>
     <use xlink:href="#OpenSans-Regular-20" x="444.921875"/>
     <use xlink:href="#OpenSans-Regular-61" x="470.898438"/>
     <use xlink:href="#OpenSans-Regular-20" x="526.464844"/>
     <use xlink:href="#OpenSans-Regular-63" x="552.441406"/>
     <use xlink:href="#OpenSans-Regular-6f" x="600.341797"/>
     <use xlink:href="#OpenSans-Regular-73" x="660.498047"/>
     <use xlink:href="#OpenSans-Regular-6d" x="708.154297"/>
     <use xlink:href="#OpenSans-Regular-69" x="800.732422"/>
     <use xlink:href="#OpenSans-Regular-63" x="825.976562"/>
     <use xlink:href="#OpenSans-Regular-20" x="873.876953"/>
     <use xlink:href="#OpenSans-Regular-72" x="899.853516"/>
     <use xlink:href="#OpenSans-Regular-61" x="940.722656"/>
     <use xlink:href="#OpenSans-Regular-79" x="996.289062"/>
     <use xlink:href="#OpenSans-Regular-73" x="1046.386719"/>
     <use xlink:href="#OpenSans-Regular-20" x="1094.042969"/>
     <use xlink:href="#OpenSans-Regular-69" x="1120.019531"/>
     <use xlink:href="#OpenSans-Regular-6e" x="1145.263672"/>
     <use xlink:href="#OpenSans-Regular-20" x="1206.591797"/>
     <use xlink:href="#OpenSans-Regular-61" x="1232.568359"/>
     <use xlink:href="#OpenSans-Regular-20" x="1288.134766"/>
     <use xlink:href="#OpenSans-Regular-73" x="1314.111328"/>
     <use xlink:href="#OpenSans-Regular-75" x="1361.767578"/>
     <use xlink:href="#OpenSans-Regular-72" x="1423.095703"/>
     <use xlink:href="#OpenSans-Regular-66" x="1463.964844"/>
     <use xlink:href="#OpenSans-Regular-61" x="1497.607422"/>
     <use xlink:href="#OpenSans-Regular-63" x="1553.173828"/>
     <use xlink:href="#OpenSans-Regular-65" x="1601.074219"/>
     <use xlink:href="#OpenSans-Regular-20" x="1657.226562"/>
     <use xlink:href="#OpenSans-Regular-63" x="1683.203125"/>
     <use xlink:href="#OpenSans-Regular-6f" x="1731.103516"/>
     <use xlink:href="#OpenSans-Regular-64" x="1791.259766"/>
     <use xlink:href="#OpenSans-Regular-65" x="1852.441406"/>
     <use xlink:href="#OpenSans-Regular-20" x="1908.59375"/>
     <use xlink:href="#OpenSans-Regular-70" x="1934.570312"/>
     <use xlink:href="#OpenSans-Regular-61" x="1995.751953"/>
     <use xlink:href="#OpenSans-Regular-74" x="2051.318359"/>
     <use xlink:href="#OpenSans-Regular-63" x="2086.962891"/>
     <use xlink:href="#OpenSans-Regular-68" x="2134.863281"/>
    </g>
   </g>
   <g id="legend_2">
    <g id="patch_13">
     <path d="M 72.481235 180.54657 
L 186.803735 180.54657 
Q 189.203735 180.54657 189.203735 178.14657 
L 189.203735 161.344695 
Q 189.203735 158.944695 186.803735 158.944695 
L 72.481235 158.944695 
Q 70.081235 158.944695 70.081235 161.344695 
L 70.081235 178.14657 
Q 70.081235 180.54657 72.481235 180.54657 
z
" style="fill: #ffffff; opacity: 0.8; stroke: #cccccc; stroke-linejoin: miter"/>
    </g>
    <g id="line2d_47">
     <path d="M 74.881235 168.66282 
L 86.881235 168.66282 
L 98.881235 168.66282 
" style="fill: none; stroke: #cc79a7; stroke-width: 1.5; stroke-linecap: square"/>
     <g>
      <use xlink:href="#m0eb70fd85a" x="86.881235" y="168.66282" style="fill: #cc79a7; stroke: #cc79a7; stroke-linejoin: miter"/>
     </g>
    </g>
    <g id="text_25">
     <!-- Signal chance -->
     <g transform="translate(108.481235 172.86282) scale(0.12 -0.12)">
      <defs>
       <path id="OpenSans-Regular-53" d="M 3203 1216 
Q 3203 809 3001 523 
Q 2800 238 2437 87 
Q 2075 -63 1584 -63 
Q 1325 -63 1094 -38 
Q 863 -13 669 34 
Q 475 81 328 150 
L 328 659 
Q 563 563 900 480 
Q 1238 397 1606 397 
Q 1950 397 2187 489 
Q 2425 581 2548 754 
Q 2672 928 2672 1172 
Q 2672 1406 2569 1564 
Q 2466 1722 2227 1851 
Q 1988 1981 1575 2128 
Q 1284 2231 1062 2354 
Q 841 2478 691 2634 
Q 541 2791 464 2997 
Q 388 3203 388 3469 
Q 388 3834 573 4095 
Q 759 4356 1089 4495 
Q 1419 4634 1847 4634 
Q 2213 4634 2523 4565 
Q 2834 4497 3094 4381 
L 2928 3925 
Q 2681 4028 2404 4097 
Q 2128 4166 1834 4166 
Q 1541 4166 1339 4080 
Q 1138 3994 1031 3837 
Q 925 3681 925 3466 
Q 925 3225 1026 3065 
Q 1128 2906 1351 2782 
Q 1575 2659 1944 2525 
Q 2347 2378 2628 2214 
Q 2909 2050 3056 1814 
Q 3203 1578 3203 1216 
z
" transform="scale(0.015625)"/>
      </defs>
      <use xlink:href="#OpenSans-Regular-53"/>
      <use xlink:href="#OpenSans-Regular-69" x="54.833984"/>
      <use xlink:href="#OpenSans-Regular-67" x="80.078125"/>
      <use xlink:href="#OpenSans-Regular-6e" x="134.375"/>
      <use xlink:href="#OpenSans-Regular-61" x="195.703125"/>
      <use xlink:href="#OpenSans-Regular-6c" x="251.269531"/>
      <use xlink:href="#OpenSans-Regular-20" x="276.513672"/>
      <use xlink:href="#OpenSans-Regular-63" x="302.490234"/>
      <use xlink:href="#OpenSans-Regular-68" x="350.390625"/>
      <use xlink:href="#OpenSans-Regular-61" x="411.71875"/>
      <use xlink:href="#OpenSans-Regular-6e" x="467.285156"/>
      <use xlink:href="#OpenSans-Regular-63" x="528.613281"/>
      <use xlink:href="#OpenSans-Regular-65" x="576.513672"/>
     </g>
    </g>
   </g>
  </g>
 </g>
 <defs>
  <clipPath id="p5f2acf3221">
   <rect x="54.081875" y="24.21825" width="357.12" height="266.112"/>
  </clipPath>
 </defs>
</svg>
